# File produced by Open Asset Import Library (http://www.assimp.sf.net)
# (assimp v3.1.202510665)

mtllib aire_CuerpoSUB.mtl

# vertex positions
v 0.058891 3.703142 -6.081745
v 1.181846 3.703142 -6.081745
v 1.181846 3.703142 -6.725543
v 0.058891 3.703142 -6.725543
v 1.181846 0.759570 -6.362797
v 0.058891 0.759570 -6.362797
v 1.181846 0.759570 -6.081745
v 0.058891 0.759570 -6.081745
v 2.271306 2.949299 -5.915521
v 2.271306 3.211873 -5.915521
v 2.202917 3.211873 -5.915521
v 2.202917 2.949299 -5.915521
v 0.706760 1.133546 -2.237399
v 0.706760 2.268234 -0.675635
v 0.706760 0.706470 -1.810323
v 2.202917 1.439344 -2.732250
v 2.202917 1.439344 -5.915521
v 2.271306 1.439344 -5.915521
v 2.271306 1.439344 -3.886081
v 2.271306 1.439344 -2.732250
v 0.706760 0.432270 -1.272176
v 0.706760 1.671693 -2.511599
v 2.202917 1.628320 -5.915521
v 2.202917 1.890895 -5.915521
v 2.202917 1.890895 -2.732250
v 2.202917 1.628320 -2.732250
v 0.706760 2.268234 -2.606081
v 0.706760 0.337788 -0.675635
v 2.271306 3.400849 -5.915521
v 2.271306 3.663424 -5.915521
v 2.202917 3.663424 -5.915521
v 2.202917 3.400849 -5.915521
v 0.706760 2.864775 -2.511598
v 0.706760 0.432271 -0.079094
v 2.271306 1.628320 -2.732250
v 2.271306 1.628320 -3.594258
v 2.271306 1.628320 -5.915521
v 2.271306 0.706470 -1.810323
v 2.271306 1.133546 -2.237399
v 2.202917 2.079871 -5.915521
v 2.202917 2.342446 -5.915521
v 2.202917 2.342446 -2.732250
v 2.202917 2.079871 -2.732250
v 2.271306 0.432270 -1.272176
v 2.271306 1.671693 -2.511599
v 0.706760 3.402922 -2.237399
v 0.706760 0.706471 0.459053
v 2.271306 2.342446 -5.915521
v 2.271306 2.342446 -2.732250
v 2.271306 2.497748 -2.732250
v 2.271306 2.497748 -5.915521
v 2.202917 2.497748 -5.915521
v 2.202917 2.497748 -2.732250
v 2.202917 2.760323 -5.915521
v 2.202917 2.760323 -2.732250
v 2.271306 1.890895 -5.915521
v 2.271306 1.890895 -3.188781
v 2.271306 1.890895 -2.732250
v 2.271306 2.268234 -2.606081
v 2.271306 0.337788 -0.675635
v 0.706760 3.829998 -1.810323
v 0.706760 1.133547 0.886129
v 2.271306 2.760323 -5.915521
v 2.271306 2.760323 -2.732250
v 2.271306 1.176770 -2.732250
v 2.202917 1.176770 -2.732250
v 2.271306 2.949299 -2.732250
v 2.202917 2.949299 -2.732250
v 0.706760 1.671694 1.160329
v 0.706760 4.104198 -1.272175
v 2.271306 2.079871 -2.732250
v 2.271306 2.079871 -2.896958
v 2.271306 2.079871 -5.915521
v 2.202917 3.211873 -2.732250
v 2.271306 3.211873 -2.732250
v 2.271306 2.864775 -2.511598
v 2.271306 0.432271 -0.079094
v 0.706760 2.268234 1.254811
v 0.706760 4.198680 -0.675635
v 2.271306 3.400849 -2.732250
v 2.202917 3.400849 -2.732250
v 0.706760 2.864775 1.160329
v 0.706760 4.104198 -0.079094
v 2.202917 3.663424 -2.732250
v 0.706760 3.402922 0.886129
v 0.706760 3.829998 0.459053
v 2.271306 3.663424 -2.732250
v 2.271306 3.402922 -2.237399
v 2.271306 0.706471 0.459053
v -1.076968 4.613443 1.750085
v 2.271306 4.613443 1.750085
v 2.271306 4.613443 -6.108767
v -1.076968 4.613443 -6.108767
v 2.271306 3.829998 -1.810323
v 2.271306 1.133547 0.886129
v 2.271306 2.186531 -2.732250
v 2.271306 1.671694 1.160329
v 2.271306 4.104198 -1.272175
v -1.076968 0.000000 1.750085
v 2.271306 0.000000 1.750085
v 2.271306 2.268234 1.254811
v 2.271306 4.198680 -0.675635
v 2.271306 2.864775 1.160329
v 2.271306 4.104198 -0.079094
v 2.271306 3.402922 0.886129
v 2.271306 3.829998 0.459053
v 2.271306 0.000000 -6.108767
v 2.271306 1.176770 -5.915521
v 2.271306 1.176770 -4.291558
v 2.202917 1.176770 -5.915521
v -1.076968 0.000000 -6.108767
v 0.286738 4.525252 -3.158865
v 1.317556 4.525252 -3.158865
v 1.317556 4.793502 -3.158865
v 0.286738 4.793502 -3.158865
v 0.286738 5.084964 -4.086344
v 1.317556 5.084964 -4.086344
v 1.317556 5.084964 -5.795060
v 0.286738 5.084964 -5.795060
v 1.317556 4.525252 -5.795060
v 0.286738 4.525252 -5.795060
v 1.317556 4.525252 -4.086344
v 0.286738 4.525252 -4.086344

# UV coordinates
vt 0.881164 0.838420
vt 0.881164 0.769980
vt 0.920402 0.769980
vt 0.920402 0.838420
vt 0.206827 0.682817
vt 0.275267 0.682817
vt 0.275267 0.862216
vt 0.206827 0.862216
vt 0.927939 0.838420
vt 0.927939 0.769980
vt 0.945068 0.769980
vt 0.945068 0.838420
vt 0.282836 0.724115
vt 0.351276 0.724115
vt 0.351276 0.903515
vt 0.282836 0.903515
vt 0.358845 0.903515
vt 0.358845 0.724115
vt 0.375974 0.724115
vt 0.398082 0.903515
vt 0.444857 0.724115
vt 0.444857 0.903515
vt 0.405620 0.903515
vt 0.427728 0.724115
vt 0.957760 0.836796
vt 0.957760 0.852799
vt 0.953592 0.852799
vt 0.953592 0.836796
vt 0.390799 0.507286
vt 0.459954 0.602470
vt 0.364771 0.533315
vt 0.331998 0.678825
vt 0.331998 0.484817
vt 0.336166 0.484817
vt 0.336166 0.608503
vt 0.336166 0.678825
vt 0.348059 0.566113
vt 0.423598 0.490575
vt 0.309859 0.484817
vt 0.325862 0.484817
vt 0.325862 0.678825
vt 0.309859 0.678825
vt 0.459954 0.484817
vt 0.342301 0.602470
vt 0.947457 0.842412
vt 0.947457 0.858414
vt 0.943289 0.858414
vt 0.943289 0.842412
vt 0.496311 0.490575
vt 0.348059 0.638827
vt 0.299556 0.678825
vt 0.299556 0.484817
vt 0.303724 0.484817
vt 0.303724 0.537353
vt 0.303724 0.678825
vt 0.097345 0.847155
vt 0.097345 0.873184
vt 0.001992 0.873184
vt 0.001992 0.847155
vt 0.277418 0.484817
vt 0.293421 0.484817
vt 0.293421 0.678825
vt 0.277418 0.678825
vt 0.097345 0.814357
vt 0.001992 0.814357
vt 0.769929 0.769980
vt 0.769929 0.802778
vt 0.674576 0.802778
vt 0.674576 0.769980
vt 0.529109 0.507287
vt 0.364771 0.671625
vt 0.271282 0.484817
vt 0.271282 0.678825
vt 0.267114 0.678825
vt 0.267114 0.484817
vt 0.260979 0.484817
vt 0.260979 0.678825
vt 0.256811 0.678825
vt 0.256811 0.484817
vt 0.234672 0.484817
vt 0.250675 0.484817
vt 0.250675 0.678825
vt 0.234672 0.678825
vt 0.224369 0.678825
vt 0.224369 0.484817
vt 0.228537 0.484817
vt 0.228537 0.651001
vt 0.228537 0.678825
vt 0.769929 0.839135
vt 0.674576 0.839135
vt 0.097345 0.778000
vt 0.001992 0.778000
vt 0.555138 0.533315
vt 0.390799 0.697654
vt 0.218234 0.484817
vt 0.218234 0.678825
vt 0.214066 0.678825
vt 0.214066 0.484817
vt 0.937154 0.842412
vt 0.937154 0.858414
vt 0.932985 0.858414
vt 0.932985 0.842412
vt 0.207930 0.484817
vt 0.207930 0.678825
vt 0.203762 0.678825
vt 0.203762 0.484817
vt 0.423598 0.714365
vt 0.571850 0.566113
vt 0.193459 0.678825
vt 0.193459 0.484817
vt 0.197627 0.484817
vt 0.197627 0.494855
vt 0.197627 0.678825
vt 0.171321 0.484817
vt 0.187324 0.484817
vt 0.187324 0.678825
vt 0.171321 0.678825
vt 0.165185 0.484817
vt 0.165185 0.678825
vt 0.161017 0.678825
vt 0.161017 0.484817
vt 0.769929 0.875492
vt 0.674576 0.875492
vt 0.097345 0.741643
vt 0.001992 0.741643
vt 0.459954 0.720124
vt 0.577608 0.602470
vt 0.926850 0.842412
vt 0.926850 0.858415
vt 0.922682 0.858415
vt 0.922682 0.842412
vt 0.154882 0.484817
vt 0.154882 0.678825
vt 0.150714 0.678825
vt 0.150714 0.484817
vt 0.496311 0.714365
vt 0.571850 0.638827
vt 0.128575 0.484817
vt 0.144578 0.484817
vt 0.144578 0.678825
vt 0.128575 0.678825
vt 0.529109 0.697654
vt 0.555138 0.671625
vt 0.122440 0.484817
vt 0.122440 0.678825
vt 0.118272 0.678825
vt 0.118272 0.484817
vt 0.769929 0.908290
vt 0.674576 0.908290
vt 0.097345 0.708845
vt 0.001992 0.708845
vt 0.916547 0.842412
vt 0.916547 0.858415
vt 0.912379 0.858415
vt 0.912379 0.842412
vt 0.001992 0.001858
vt 0.206057 0.001858
vt 0.206057 0.480825
vt 0.001992 0.480825
vt 0.906244 0.842412
vt 0.906244 0.858415
vt 0.902075 0.858415
vt 0.902075 0.842412
vt 0.198886 0.682817
vt 0.198886 0.708845
vt 0.103532 0.708845
vt 0.103532 0.682817
vt 0.097345 0.682817
vt 0.001992 0.682817
vt 0.895940 0.842412
vt 0.895940 0.858415
vt 0.891772 0.858415
vt 0.891772 0.842412
vt 0.881469 0.858415
vt 0.881469 0.842412
vt 0.885637 0.842412
vt 0.885637 0.851914
vt 0.885637 0.858415
vt 0.873223 0.875492
vt 0.873223 0.908290
vt 0.777870 0.908290
vt 0.777870 0.875492
vt 0.198886 0.741643
vt 0.103532 0.741643
vt 0.793943 0.484817
vt 0.998008 0.484817
vt 0.998008 0.765989
vt 0.793943 0.765989
vt 0.873223 0.839135
vt 0.777870 0.839135
vt 0.198886 0.778000
vt 0.103532 0.778000
vt 0.873223 0.802778
vt 0.777870 0.802778
vt 0.198886 0.814357
vt 0.103532 0.814357
vt 0.873223 0.769980
vt 0.777870 0.769980
vt 0.198886 0.847155
vt 0.103532 0.847155
vt 0.198886 0.873184
vt 0.103532 0.873184
vt 0.446098 0.402142
vt 0.493846 0.480825
vt 0.420069 0.428170
vt 0.387271 0.444882
vt 0.212674 0.480825
vt 0.350914 0.450640
vt 0.314557 0.444882
vt 0.281759 0.428170
vt 0.255731 0.402142
vt 0.462809 0.369344
vt 0.239019 0.369344
vt 0.468568 0.332987
vt 0.493846 0.001858
vt 0.462809 0.296630
vt 0.446098 0.263832
vt 0.435946 0.207644
vt 0.435946 0.013635
vt 0.212674 0.001858
vt 0.419943 0.013635
vt 0.420069 0.237803
vt 0.419943 0.207644
vt 0.387271 0.221092
vt 0.408425 0.013635
vt 0.392422 0.013635
vt 0.408425 0.207644
vt 0.392422 0.207644
vt 0.380905 0.013635
vt 0.364902 0.013635
vt 0.380905 0.207644
vt 0.350914 0.215333
vt 0.364902 0.207644
vt 0.355437 0.013635
vt 0.339434 0.013635
vt 0.355437 0.207644
vt 0.345935 0.207644
vt 0.314557 0.221092
vt 0.339434 0.207644
vt 0.327917 0.013635
vt 0.311914 0.013635
vt 0.327917 0.179820
vt 0.339434 0.197605
vt 0.327917 0.207644
vt 0.311914 0.207644
vt 0.300396 0.013635
vt 0.284393 0.013635
vt 0.300396 0.137322
vt 0.311914 0.155107
vt 0.300396 0.207644
vt 0.284393 0.112610
vt 0.281759 0.237803
vt 0.284393 0.207644
vt 0.255730 0.263832
vt 0.239019 0.296630
vt 0.233261 0.332987
vt 0.096134 0.484817
vt 0.112137 0.484817
vt 0.112137 0.678825
vt 0.096134 0.678825
vt 0.085830 0.678825
vt 0.085830 0.484817
vt 0.089999 0.484817
vt 0.089999 0.579851
vt 0.089999 0.678825
vt 0.875333 0.912282
vt 0.875333 0.928285
vt 0.871165 0.928285
vt 0.871165 0.912282
vt 0.865030 0.912282
vt 0.865030 0.928285
vt 0.860862 0.928285
vt 0.860862 0.912282
vt 0.854727 0.912282
vt 0.854727 0.928285
vt 0.850559 0.928285
vt 0.850559 0.912282
vt 0.501119 0.001858
vt 0.705184 0.001858
vt 0.705184 0.480825
vt 0.501119 0.480825
vt 0.844423 0.912282
vt 0.844423 0.928285
vt 0.840255 0.928285
vt 0.840255 0.912282
vt 0.711606 0.480825
vt 0.711606 0.001858
vt 0.992778 0.001858
vt 0.992778 0.480825
vt 0.583743 0.484817
vt 0.787808 0.484817
vt 0.787808 0.765989
vt 0.583743 0.765989
vt 0.951327 0.832805
vt 0.951327 0.769980
vt 0.967676 0.769980
vt 0.967676 0.832805
vt 0.452395 0.780641
vt 0.515219 0.780641
vt 0.515219 0.884781
vt 0.452395 0.884781
vt 0.963896 0.899621
vt 0.963896 0.836796
vt 0.998008 0.836796
vt 0.998008 0.899621
vt 0.522557 0.769980
vt 0.585382 0.769980
vt 0.585382 0.874120
vt 0.522557 0.874120
vt 0.626832 0.874120
vt 0.592719 0.874120
vt 0.592719 0.769980
vt 0.626832 0.769980
vt 0.633648 0.930646
vt 0.633648 0.826507
vt 0.667760 0.826507
vt 0.667760 0.930646
vt 0.452395 0.724115
vt 0.515219 0.724115
vt 0.592719 0.930646
vt 0.609068 0.930646
vt 0.585382 0.930646
vt 0.522557 0.930646
vt 0.633648 0.769980
vt 0.649996 0.769980

# vertex normals
vn 0.000000 1.000000 0.000000
vn 0.000000 -0.122308 -0.992492
vn 0.000000 -1.000000 0.000000
vn 0.000000 0.000000 1.000000
vn 1.000000 0.000000 0.000000
vn -1.000000 0.000000 0.000000
vn 1.000000 0.000000 0.000000
vn 1.000000 -0.000000 0.000000
vn 1.000000 -0.000000 0.000000
vn 1.000000 0.000000 0.000000
vn 1.000000 -0.000000 0.000000
vn 1.000000 0.000000 0.000000
vn 0.000000 0.809017 0.587785
vn 0.000000 0.587785 0.809017
vn 0.000000 0.951057 0.309016
vn 0.000000 0.309017 0.951057
vn 1.000000 0.000000 0.000000
vn 0.000000 -0.000000 1.000000
vn 0.000000 1.000000 -0.000001
vn 1.000000 -0.000000 0.000000
vn 0.000000 0.000000 -1.000000
vn 1.000000 -0.000000 0.000000
vn 0.000000 -0.309017 0.951056
vn 0.000000 0.951056 -0.309017
vn 1.000000 -0.000000 0.000000
vn 1.000000 -0.000000 0.000000
vn 1.000000 0.000000 0.000000
vn 1.000000 0.000000 0.000000
vn 0.000000 -0.587785 0.809017
vn 0.000000 0.809017 -0.587785
vn 0.000000 -0.809017 0.587785
vn 0.000000 0.587785 -0.809017
vn -0.000002 0.000000 -1.000000
vn 0.000000 0.309017 -0.951056
vn 0.000000 -0.951057 0.309017
vn 0.000000 0.000000 -1.000000
vn 0.000000 -1.000000 0.000000
vn 0.000000 -0.309017 -0.951057
vn 0.000000 -0.951057 -0.309017
vn 0.000000 -0.587785 -0.809017
vn 0.000000 -0.809017 -0.587786
vn 1.000000 -0.000000 0.000000
vn 1.000000 -0.000000 0.000000
vn 1.000000 -0.000000 0.000000
vn 1.000000 -0.000000 0.000000
vn 1.000000 0.000000 0.000000
vn 1.000000 0.000000 0.000000
vn 1.000000 -0.000000 0.000000
vn 1.000000 0.000000 0.000000
vn 1.000000 -0.000000 0.000000
vn 1.000000 0.000003 0.000000
vn 1.000000 -0.000002 0.000000
vn 1.000000 -0.000001 0.000000
vn 1.000000 -0.000000 0.000000
vn 1.000000 0.000001 0.000000
vn 1.000000 -0.000001 0.000000
vn 1.000000 -0.000000 0.000000
vn 1.000000 -0.000000 0.000000
vn 1.000000 -0.000001 0.000000
vn 1.000000 0.000000 0.000000
vn 1.000000 0.000000 0.000000
vn 1.000000 -0.000000 0.000000
vn 1.000000 0.000000 0.000000
vn 1.000000 -0.000001 0.000000
vn 1.000000 -0.000000 0.000000
vn 1.000000 0.000002 0.000000
vn 1.000000 0.000001 0.000000
vn 1.000000 -0.000000 0.000000
vn 1.000000 -0.000000 0.000000
vn 1.000000 0.000000 0.000000
vn 1.000000 -0.000001 0.000000
vn 1.000000 -0.000002 0.000000
vn 1.000000 0.000002 0.000000
vn 0.000000 0.993944 0.109892
vn 0.000000 0.954003 0.299798

# Mesh
g pCube13
usemtl lambert1
f 4/4/1 1/1/1 2/2/1
f 2/2/1 3/3/1 4/4/1
f 6/8/2 4/5/2 3/6/2
f 3/6/2 5/7/2 6/8/2
f 8/12/3 6/9/3 5/10/3
f 5/10/3 7/11/3 8/12/3
f 1/16/4 8/13/4 7/14/4
f 7/14/4 2/15/4 1/16/4
f 3/20/5 2/17/5 7/18/5
f 7/18/5 5/19/5 3/20/5
f 6/24/6 8/21/6 1/22/6
f 1/22/6 4/23/6 6/24/6
f 12/28/4 9/25/4 10/26/4
f 10/26/4 11/27/4 12/28/4
f 13/29/7 14/30/8 15/31/9
f 20/36/3 16/32/3 17/33/3
f 20/36/3 17/33/3 18/34/3
f 18/34/3 19/35/3 20/36/3
f 15/31/9 14/30/8 21/37/5
f 22/38/10 14/30/8 13/29/7
f 26/42/5 23/39/5 24/40/5
f 24/40/5 25/41/5 26/42/5
f 27/43/11 14/30/8 22/38/10
f 21/37/5 14/30/8 28/44/5
f 32/48/4 29/45/4 30/46/4
f 30/46/4 31/47/4 32/48/4
f 33/49/12 14/30/8 27/43/11
f 28/44/5 14/30/8 34/50/5
f 37/55/1 23/51/1 26/52/1
f 37/55/1 26/52/1 35/53/1
f 35/53/1 36/54/1 37/55/1
f 15/59/13 38/56/13 39/57/14
f 39/57/14 13/58/14 15/59/13
f 43/63/5 40/60/5 41/61/5
f 41/61/5 42/62/5 43/63/5
f 21/65/15 44/64/15 38/56/13
f 38/56/13 15/59/13 21/65/15
f 13/69/14 39/66/14 45/67/16
f 45/67/16 22/68/16 13/69/14
f 46/70/17 14/30/8 33/49/12
f 34/50/5 14/30/8 47/71/5
f 41/75/3 48/72/3 49/73/3
f 49/73/3 42/74/3 41/75/3
f 53/79/1 50/76/1 51/77/1
f 51/77/1 52/78/1 53/79/1
f 53/83/5 52/80/5 54/81/5
f 54/81/5 55/82/5 53/83/5
f 58/88/3 25/84/3 24/85/3
f 58/88/3 24/85/3 56/86/3
f 56/86/3 57/87/3 58/88/3
f 22/68/16 45/67/16 59/89/18
f 59/89/18 27/90/18 22/68/16
f 28/92/19 60/91/19 44/64/15
f 44/64/15 21/65/15 28/92/19
f 61/93/5 14/30/8 46/70/17
f 47/71/5 14/30/8 62/94/20
f 54/98/3 63/95/3 64/96/3
f 64/96/3 55/97/3 54/98/3
f 16/102/21 20/99/21 65/100/21
f 65/100/21 66/101/21 16/102/21
f 68/106/1 67/103/1 9/104/1
f 9/104/1 12/105/1 68/106/1
f 62/94/20 14/30/8 69/107/22
f 70/108/5 14/30/8 61/93/5
f 73/113/1 40/109/1 43/110/1
f 73/113/1 43/110/1 71/111/1
f 71/111/1 72/112/1 73/113/1
f 68/117/5 12/114/5 11/115/5
f 11/115/5 74/116/5 68/117/5
f 11/121/3 10/118/3 75/119/3
f 75/119/3 74/120/3 11/121/3
f 27/90/18 59/89/18 76/122/23
f 76/122/23 33/123/23 27/90/18
f 34/125/24 77/124/24 60/91/19
f 60/91/19 28/92/19 34/125/24
f 69/107/22 14/30/8 78/126/5
f 79/127/5 14/30/8 70/108/5
f 25/131/21 58/128/21 35/129/21
f 35/129/21 26/130/21 25/131/21
f 81/135/1 80/132/1 29/133/1
f 29/133/1 32/134/1 81/135/1
f 78/126/5 14/30/8 82/136/25
f 83/137/26 14/30/8 79/127/5
f 81/141/5 32/138/5 31/139/5
f 31/139/5 84/140/5 81/141/5
f 82/136/25 14/30/8 85/142/27
f 86/143/28 14/30/8 83/137/26
f 85/142/27 14/30/8 86/143/28
f 31/147/3 30/144/3 87/145/3
f 87/145/3 84/146/3 31/147/3
f 33/123/23 76/122/23 88/148/29
f 88/148/29 46/149/29 33/123/23
f 47/151/30 89/150/30 77/124/24
f 77/124/24 34/125/24 47/151/30
f 55/155/21 64/152/21 50/153/21
f 50/153/21 53/154/21 55/155/21
f 93/159/1 90/156/1 91/157/1
f 91/157/1 92/158/1 93/159/1
f 74/163/21 75/160/21 67/161/21
f 67/161/21 68/162/21 74/163/21
f 46/167/29 88/164/29 94/165/31
f 94/165/31 61/166/31 46/167/29
f 62/169/32 95/168/32 89/150/30
f 89/150/30 47/151/30 62/169/32
f 84/173/21 87/170/21 80/171/21
f 80/171/21 81/172/21 84/173/21
f 71/178/33 43/174/33 42/175/33
f 71/178/33 42/175/33 49/176/33
f 49/176/33 96/177/33 71/178/33
f 69/182/34 97/179/34 95/180/32
f 95/180/32 62/181/32 69/182/34
f 61/166/31 94/165/31 98/183/35
f 98/183/35 70/184/35 61/166/31
f 90/188/4 99/185/4 100/186/4
f 100/186/4 91/187/4 90/188/4
f 78/190/36 101/189/36 97/179/34
f 97/179/34 69/182/34 78/190/36
f 70/184/35 98/183/35 102/191/37
f 102/191/37 79/192/37 70/184/35
f 82/194/38 103/193/38 101/189/36
f 101/189/36 78/190/36 82/194/38
f 79/192/37 102/191/37 104/195/39
f 104/195/39 83/196/39 79/192/37
f 85/198/40 105/197/40 103/193/38
f 103/193/38 82/194/38 85/198/40
f 83/196/39 104/195/39 106/199/41
f 106/199/41 86/200/41 83/196/39
f 86/200/41 106/199/41 105/201/40
f 105/201/40 85/202/40 86/200/41
f 106/203/42 91/204/43 105/205/44
f 105/205/44 91/204/43 103/206/45
f 91/204/43 100/207/46 103/206/45
f 103/206/45 100/207/46 101/208/47
f 101/208/47 100/207/46 97/209/48
f 97/209/48 100/207/46 95/210/49
f 95/210/49 100/207/46 89/211/50
f 106/203/42 104/212/51 91/204/43
f 89/211/50 100/207/46 77/213/52
f 104/212/51 102/214/53 91/204/43
f 91/204/43 102/214/53 92/215/54
f 102/214/53 98/216/55 92/215/54
f 98/216/55 94/217/56 92/215/54
f 94/217/56 87/218/57 92/215/54
f 87/218/57 30/219/5 92/215/54
f 92/215/54 30/219/5 107/220/58
f 30/219/5 29/221/5 107/220/58
f 94/217/56 88/222/59 87/218/57
f 87/218/57 88/222/59 80/223/5
f 88/222/59 76/224/60 80/223/5
f 29/221/5 10/225/5 107/220/58
f 10/225/5 9/226/5 107/220/58
f 10/225/5 29/221/5 75/227/5
f 29/221/5 80/223/5 75/227/5
f 80/223/5 76/224/60 75/227/5
f 75/227/5 76/224/60 67/228/5
f 9/226/5 63/229/5 107/220/58
f 63/229/5 51/230/5 107/220/58
f 63/229/5 9/226/5 64/231/61
f 9/226/5 67/228/5 64/231/61
f 67/228/5 76/224/60 64/231/61
f 76/224/60 59/232/62 64/231/61
f 64/231/61 59/232/62 50/233/5
f 51/230/5 48/234/5 107/220/58
f 48/234/5 73/235/63 107/220/58
f 48/234/5 51/230/5 49/236/5
f 51/230/5 50/233/5 49/236/5
f 50/233/5 59/232/62 49/236/5
f 49/236/5 59/232/62 96/237/64
f 59/232/62 45/238/65 96/237/64
f 96/237/64 45/238/65 71/239/5
f 73/235/63 56/240/5 107/220/58
f 56/240/5 37/241/5 107/220/58
f 56/240/5 73/235/63 57/242/66
f 73/235/63 72/243/67 57/242/66
f 57/242/66 72/243/67 58/244/5
f 72/243/67 71/239/5 58/244/5
f 71/239/5 45/238/65 58/244/5
f 58/244/5 45/238/65 35/245/5
f 37/241/5 18/246/5 107/220/58
f 18/246/5 108/247/68 107/220/58
f 18/246/5 37/241/5 19/248/5
f 37/241/5 36/249/5 19/248/5
f 19/248/5 36/249/5 20/250/5
f 36/249/5 35/245/5 20/250/5
f 108/247/68 109/251/69 107/220/58
f 35/245/5 45/238/65 20/250/5
f 45/238/65 39/252/5 20/250/5
f 20/250/5 39/252/5 65/253/70
f 39/252/5 38/254/71 65/253/70
f 109/251/69 65/253/70 107/220/58
f 65/253/70 38/254/71 107/220/58
f 38/254/71 44/255/72 107/220/58
f 77/213/52 100/207/46 60/256/73
f 100/207/46 107/220/58 60/256/73
f 44/255/72 60/256/73 107/220/58
f 66/260/5 110/257/5 17/258/5
f 17/258/5 16/259/5 66/260/5
f 108/265/1 110/261/1 66/262/1
f 108/265/1 66/262/1 65/263/1
f 65/263/1 109/264/1 108/265/1
f 52/269/4 51/266/4 63/267/4
f 63/267/4 54/268/4 52/269/4
f 40/273/4 73/270/4 48/271/4
f 48/271/4 41/272/4 40/273/4
f 23/277/4 37/274/4 56/275/4
f 56/275/4 24/276/4 23/277/4
f 99/281/3 111/278/3 107/279/3
f 107/279/3 100/280/3 99/281/3
f 110/285/4 108/282/4 18/283/4
f 18/283/4 17/284/4 110/285/4
f 93/289/6 111/286/6 99/287/6
f 99/287/6 90/288/6 93/289/6
f 111/293/21 93/290/21 92/291/21
f 92/291/21 107/292/21 111/293/21
f 115/297/4 112/294/4 113/295/4
f 113/295/4 114/296/4 115/297/4
f 119/301/1 116/298/74 117/299/74
f 117/299/74 118/300/1 119/301/1
f 121/305/21 119/302/21 118/303/21
f 118/303/21 120/304/21 121/305/21
f 123/309/3 121/306/3 120/307/3
f 120/307/3 122/308/3 123/309/3
f 118/313/5 117/310/5 122/311/5
f 122/311/5 120/312/5 118/313/5
f 119/317/6 121/314/6 123/315/6
f 123/315/6 116/316/6 119/317/6
f 116/298/74 115/318/75 114/319/75
f 114/319/75 117/299/74 116/298/74
f 114/321/5 113/320/5 122/311/5
f 122/311/5 117/310/5 114/321/5
f 112/323/3 123/309/3 122/308/3
f 122/308/3 113/322/3 112/323/3
f 115/325/6 116/316/6 123/315/6
f 123/315/6 112/324/6 115/325/6
