# This file uses centimeters as units for non-parametric coordinates.

mtllib basura.mtl
g default
v 2.641196 0.000000 -2.953462
v 1.008847 0.000000 -4.139434
v -1.008848 0.000000 -4.139433
v -2.641197 0.000000 -2.953462
v -3.264699 0.000000 -1.034521
v -2.641197 0.000000 0.884421
v -1.008847 0.000000 2.070391
v 1.008847 0.000000 2.070391
v 2.641196 0.000000 0.884420
v 3.264698 0.000000 -1.034521
v 3.300541 8.359898 -3.432505
v 1.260694 8.359898 -4.914540
v -1.260695 8.359898 -4.914539
v -3.300541 8.359898 -3.432504
v -4.079693 8.359898 -1.034520
v -3.300541 8.359898 1.363463
v -1.260694 8.359898 2.845498
v 1.260695 8.359898 2.845498
v 3.300541 8.359898 1.363462
v 4.079693 8.359898 -1.034521
v 1.168501 9.201029 -4.630800
v 3.059177 9.201029 -3.257143
v -1.168502 9.201029 -4.630799
v -3.059178 9.201029 -3.257143
v -3.781351 9.201029 -1.034521
v -3.059177 9.201029 1.188102
v -1.168501 9.201029 2.561758
v 1.168502 9.201029 2.561758
v 3.059177 9.201029 1.188101
v 3.781351 9.201029 -1.034521
v 3.823876 9.201029 -3.812729
v 1.460590 9.201029 -5.529757
v 3.753278 8.305911 -3.761437
v 1.433624 8.305911 -5.446764
v -1.460591 9.201029 -5.529756
v -1.433625 8.305911 -5.446763
v -3.823876 9.201029 -3.812729
v -3.753278 8.305911 -3.761436
v -4.726570 9.201029 -1.034520
v -4.639307 8.305911 -1.034520
v -3.823876 9.201029 1.743688
v -3.753278 8.305911 1.692396
v -1.460590 9.201029 3.460715
v -1.433625 8.305911 3.377722
v 1.460591 9.201029 3.460715
v 1.433625 8.305911 3.377722
v 3.823875 9.201029 1.743687
v 3.753278 8.305911 1.692395
v 4.726570 9.201029 -1.034521
v 4.639307 8.305911 -1.034521
v -0.000000 9.250785 -1.034521
v 0.112925 9.869027 -0.212567
v -0.112925 9.869027 -0.212567
v 0.112925 9.552653 -0.212567
v -0.112925 9.552653 -0.212567
v 0.112925 9.552653 -1.856474
v -0.112925 9.552653 -1.856474
v 0.112925 9.869027 -1.856474
v -0.112925 9.869027 -1.856474
v 0.112925 9.552653 -0.602187
v -0.112925 9.552653 -0.602187
v -0.112925 9.869027 -0.602187
v 0.112925 9.869027 -0.602187
v 0.112925 9.552653 -1.466853
v -0.112925 9.552653 -1.466853
v -0.112925 9.869027 -1.466853
v 0.112925 9.869027 -1.466853
v 0.112925 9.233559 -1.466853
v -0.112925 9.233559 -1.466853
v -0.112925 9.233559 -1.856474
v 0.112925 9.233559 -1.856474
v 0.112925 9.233559 -0.212567
v -0.112925 9.233559 -0.212567
v -0.112925 9.233559 -0.602187
v 0.112925 9.233559 -0.602187
vt 0.271267 0.389621
vt 0.349193 0.389621
vt 0.349193 0.729111
vt 0.251813 0.729111
vt 0.427120 0.389621
vt 0.446574 0.729111
vt 0.223105 0.389621
vt 0.191628 0.729111
vt 0.475282 0.389621
vt 0.506759 0.729111
vt 0.700294 0.382533
vt 0.778221 0.382533
vt 0.778221 0.722023
vt 0.680841 0.722023
vt 0.856148 0.382533
vt 0.875602 0.722023
vt 0.652133 0.382533
vt 0.620656 0.722023
vt 0.904310 0.382533
vt 0.935786 0.722023
vt 0.818719 0.297362
vt 0.782369 0.295279
vt 0.782369 0.184541
vt 0.818719 0.184541
vt 0.818719 0.367089
vt 0.782369 0.363719
vt 0.782369 0.073802
vt 0.818719 0.071719
vt 0.782369 0.005362
vt 0.818719 0.001992
vt 0.774860 0.297362
vt 0.738510 0.295279
vt 0.738510 0.184541
vt 0.774860 0.184541
vt 0.774860 0.367089
vt 0.738510 0.363719
vt 0.738510 0.073802
vt 0.774860 0.071719
vt 0.738510 0.005362
vt 0.774860 0.001992
vt 0.378670 0.783789
vt 0.391518 0.783789
vt 0.391518 0.799611
vt 0.378670 0.799611
vt 0.378670 0.748676
vt 0.391518 0.748676
vt 0.365712 0.799611
vt 0.365712 0.783789
vt 0.391518 0.732853
vt 0.378670 0.732853
vt 0.365712 0.748676
vt 0.365712 0.732853
vt 0.424412 0.732853
vt 0.424412 0.748676
vt 0.411564 0.748676
vt 0.411564 0.732853
vt 0.424412 0.783789
vt 0.411564 0.783789
vt 0.398606 0.748676
vt 0.398606 0.732853
vt 0.424412 0.799611
vt 0.411564 0.799611
vt 0.398606 0.799611
vt 0.398606 0.783789
vt 0.050029 0.758173
vt 0.127956 0.732853
vt 0.205883 0.758173
vt 0.254045 0.824462
vt 0.254045 0.906399
vt 0.205883 0.972688
vt 0.127956 0.998008
vt 0.050029 0.972688
vt 0.001868 0.906399
vt 0.001868 0.824462
vt 0.274676 0.069704
vt 0.330459 0.146483
vt 0.184416 0.193935
vt 0.297238 0.038650
vt 0.366965 0.134621
vt 0.330459 0.241387
vt 0.184416 0.040377
vt 0.184416 0.001992
vt 0.366965 0.253249
vt 0.274676 0.318166
vt 0.094157 0.069704
vt 0.071595 0.038650
vt 0.297238 0.349220
vt 0.184416 0.347493
vt 0.038374 0.146483
vt 0.001868 0.134621
vt 0.184416 0.385878
vt 0.094157 0.318166
vt 0.038374 0.241387
vt 0.001868 0.253249
vt 0.071595 0.349220
vt 0.454819 0.056358
vt 0.394635 0.139195
vt 0.373022 0.132173
vt 0.441462 0.037973
vt 0.394635 0.241587
vt 0.373022 0.248610
vt 0.552200 0.024718
vt 0.552200 0.001992
vt 0.454819 0.324424
vt 0.441462 0.342810
vt 0.649581 0.056358
vt 0.662938 0.037973
vt 0.552200 0.356065
vt 0.552200 0.378791
vt 0.709765 0.139195
vt 0.731378 0.132173
vt 0.649581 0.324424
vt 0.662938 0.342810
vt 0.709765 0.241587
vt 0.731378 0.248610
vt 0.490012 0.748676
vt 0.480841 0.748676
vt 0.480841 0.732853
vt 0.490012 0.732853
vt 0.358436 0.799611
vt 0.349265 0.799611
vt 0.349265 0.783789
vt 0.358436 0.783789
vt 0.349265 0.748676
vt 0.358436 0.748676
vt 0.349265 0.732853
vt 0.358436 0.732853
vt 0.506459 0.748676
vt 0.497288 0.748676
vt 0.497288 0.732853
vt 0.506459 0.732853
vt 0.440671 0.767967
vt 0.431500 0.767967
vt 0.431500 0.732853
vt 0.440671 0.732853
vt 0.604676 0.722023
vt 0.522739 0.722023
vt 0.512511 0.382533
vt 0.614903 0.382533
vt 0.093711 0.389621
vt 0.175648 0.389621
vt 0.185876 0.729111
vt 0.083484 0.729111
vt 0.261548 0.732853
vt 0.297898 0.733948
vt 0.297898 0.850386
vt 0.261548 0.851481
vt 0.341756 0.851481
vt 0.305406 0.850386
vt 0.305406 0.733948
vt 0.341756 0.732853
vt 0.457118 0.758659
vt 0.447947 0.758659
vt 0.447947 0.745812
vt 0.457118 0.745812
vt 0.447947 0.732853
vt 0.457118 0.732853
vt 0.473565 0.745701
vt 0.464394 0.745701
vt 0.464394 0.732853
vt 0.473565 0.732853
vt 0.473565 0.758659
vt 0.464394 0.758659
vt 0.522906 0.738724
vt 0.513735 0.738724
vt 0.513735 0.725766
vt 0.522906 0.725766
vt 0.530182 0.725766
vt 0.539353 0.725766
vt 0.539353 0.738724
vt 0.530182 0.738724
vn 0.000000 -1.000000 0.000000
vn 0.000000 -1.000000 0.000000
vn 0.000000 -1.000000 0.000000
vn 0.000000 -1.000000 0.000000
vn 0.000000 -1.000000 0.000000
vn 0.000000 -1.000000 0.000000
vn 0.000000 -1.000000 0.000000
vn 0.000000 -1.000000 0.000000
vn 0.000000 -1.000000 0.000000
vn 0.000000 -1.000000 0.000000
vn 0.585275 -0.092321 -0.805562
vn 0.585275 -0.092321 -0.805562
vn 0.585275 -0.092321 -0.805562
vn 0.585275 -0.092321 -0.805562
vn -0.000000 -0.092321 -0.995729
vn -0.000000 -0.092321 -0.995729
vn -0.000000 -0.092321 -0.995729
vn -0.000000 -0.092321 -0.995729
vn -0.585275 -0.092321 -0.805562
vn -0.585275 -0.092321 -0.805562
vn -0.585275 -0.092321 -0.805562
vn -0.585275 -0.092321 -0.805562
vn -0.946995 -0.092321 -0.307697
vn -0.946995 -0.092321 -0.307697
vn -0.946995 -0.092321 -0.307697
vn -0.946995 -0.092321 -0.307697
vn -0.946995 -0.092321 0.307697
vn -0.946995 -0.092321 0.307697
vn -0.946995 -0.092321 0.307697
vn -0.946995 -0.092321 0.307697
vn -0.585275 -0.092321 0.805562
vn -0.585275 -0.092321 0.805562
vn -0.585275 -0.092321 0.805562
vn -0.585275 -0.092321 0.805562
vn 0.000000 -0.092321 0.995729
vn 0.000000 -0.092321 0.995729
vn 0.000000 -0.092321 0.995729
vn 0.000000 -0.092321 0.995729
vn 0.585275 -0.092321 0.805562
vn 0.585275 -0.092321 0.805562
vn 0.585275 -0.092321 0.805562
vn 0.585275 -0.092321 0.805562
vn 0.946995 -0.092321 0.307697
vn 0.946995 -0.092321 0.307697
vn 0.946995 -0.092321 0.307697
vn 0.946995 -0.092321 0.307697
vn 0.946995 -0.092321 -0.307697
vn 0.946995 -0.092321 -0.307697
vn 0.946995 -0.092321 -0.307697
vn 0.946995 -0.092321 -0.307697
vn 0.005774 0.999975 -0.004195
vn 0.002205 0.999975 -0.006788
vn 0.000000 1.000000 -0.000000
vn 0.000000 1.000000 0.000000
vn 0.000000 1.000000 0.000000
vn 0.585276 -0.092321 -0.805562
vn 0.585276 -0.092321 -0.805561
vn 0.585276 -0.092321 -0.805561
vn 0.585276 -0.092321 -0.805561
vn 0.000000 1.000000 0.000000
vn -0.002205 0.999975 -0.006787
vn -0.000000 -0.092321 -0.995729
vn -0.000000 -0.092321 -0.995729
vn -0.000000 -0.092321 -0.995729
vn -0.000000 -0.092321 -0.995729
vn 0.000000 1.000000 -0.000000
vn -0.005774 0.999975 -0.004195
vn -0.585275 -0.092321 -0.805562
vn -0.585275 -0.092321 -0.805562
vn -0.585275 -0.092321 -0.805562
vn -0.585275 -0.092321 -0.805562
vn 0.000000 1.000000 -0.000000
vn -0.007137 0.999975 -0.000000
vn -0.946995 -0.092321 -0.307697
vn -0.946995 -0.092321 -0.307697
vn -0.946995 -0.092321 -0.307697
vn -0.946995 -0.092321 -0.307697
vn 0.000000 1.000000 0.000000
vn -0.005774 0.999975 0.004195
vn -0.946995 -0.092320 0.307697
vn -0.946995 -0.092320 0.307697
vn -0.946995 -0.092320 0.307697
vn -0.946995 -0.092320 0.307697
vn 0.000000 1.000000 0.000000
vn -0.002205 0.999975 0.006788
vn -0.585275 -0.092321 0.805562
vn -0.585275 -0.092321 0.805562
vn -0.585275 -0.092321 0.805562
vn -0.585275 -0.092321 0.805562
vn 0.000000 1.000000 -0.000000
vn 0.002205 0.999975 0.006787
vn 0.000000 -0.092321 0.995729
vn 0.000000 -0.092321 0.995729
vn 0.000000 -0.092321 0.995729
vn 0.000000 -0.092321 0.995729
vn 0.000000 1.000000 -0.000000
vn 0.005774 0.999975 0.004195
vn 0.585276 -0.092321 0.805561
vn 0.585276 -0.092321 0.805561
vn 0.585276 -0.092321 0.805561
vn 0.585276 -0.092321 0.805562
vn 0.000000 1.000000 0.000000
vn 0.007137 0.999975 0.000000
vn 0.946995 -0.092321 0.307697
vn 0.946995 -0.092321 0.307697
vn 0.946995 -0.092321 0.307697
vn 0.946995 -0.092321 0.307697
vn 0.946995 -0.092321 -0.307697
vn 0.946995 -0.092321 -0.307697
vn 0.946995 -0.092321 -0.307697
vn 0.946995 -0.092321 -0.307697
vn -0.059318 -0.994895 0.081645
vn -0.059318 -0.994895 0.081645
vn -0.059318 -0.994895 0.081645
vn -0.059318 -0.994895 0.081645
vn 0.000000 -0.994895 0.100918
vn 0.000000 -0.994895 0.100918
vn 0.000000 -0.994895 0.100918
vn 0.000000 -0.994895 0.100918
vn 0.059318 -0.994895 0.081644
vn 0.059318 -0.994895 0.081644
vn 0.059318 -0.994895 0.081644
vn 0.059318 -0.994895 0.081644
vn 0.095979 -0.994895 0.031185
vn 0.095979 -0.994895 0.031185
vn 0.095979 -0.994895 0.031185
vn 0.095979 -0.994895 0.031185
vn 0.095979 -0.994895 -0.031185
vn 0.095979 -0.994895 -0.031185
vn 0.095979 -0.994895 -0.031185
vn 0.095979 -0.994895 -0.031185
vn 0.059318 -0.994895 -0.081644
vn 0.059318 -0.994895 -0.081644
vn 0.059318 -0.994895 -0.081644
vn 0.059318 -0.994895 -0.081644
vn 0.000000 -0.994895 -0.100919
vn 0.000000 -0.994895 -0.100919
vn 0.000000 -0.994895 -0.100919
vn 0.000000 -0.994895 -0.100919
vn -0.059318 -0.994895 -0.081644
vn -0.059318 -0.994895 -0.081644
vn -0.059318 -0.994895 -0.081644
vn -0.059318 -0.994895 -0.081644
vn -0.095979 -0.994895 -0.031185
vn -0.095979 -0.994895 -0.031185
vn -0.095979 -0.994895 -0.031185
vn -0.095979 -0.994895 -0.031185
vn -0.095979 -0.994895 0.031185
vn -0.095979 -0.994895 0.031185
vn -0.095979 -0.994895 0.031185
vn -0.095979 -0.994895 0.031185
vn 0.000000 0.000000 1.000000
vn 0.000000 0.000000 1.000000
vn 0.000000 0.000000 1.000000
vn 0.000000 0.000000 1.000000
vn 0.000000 -1.000000 0.000000
vn 0.000000 -1.000000 0.000000
vn 0.000000 -1.000000 0.000000
vn 0.000000 -1.000000 0.000000
vn 0.000000 0.000000 -1.000000
vn 0.000000 0.000000 -1.000000
vn 0.000000 0.000000 -1.000000
vn 0.000000 0.000000 -1.000000
vn 0.000000 1.000000 0.000000
vn 0.000000 1.000000 0.000000
vn 0.000000 1.000000 0.000000
vn 0.000000 1.000000 0.000000
vn -1.000000 0.000000 0.000000
vn -1.000000 0.000000 0.000000
vn -1.000000 0.000000 0.000000
vn -1.000000 0.000000 0.000000
vn 1.000000 0.000000 0.000000
vn 1.000000 0.000000 0.000000
vn 1.000000 0.000000 0.000000
vn 1.000000 0.000000 0.000000
vn 0.000000 -1.000000 0.000000
vn 0.000000 -1.000000 0.000000
vn 0.000000 -1.000000 0.000000
vn 0.000000 -1.000000 0.000000
vn -1.000000 0.000000 0.000000
vn -1.000000 0.000000 0.000000
vn -1.000000 0.000000 0.000000
vn -1.000000 0.000000 0.000000
vn 0.000000 1.000000 0.000000
vn 0.000000 1.000000 0.000000
vn 0.000000 1.000000 0.000000
vn 0.000000 1.000000 0.000000
vn 1.000000 0.000000 0.000000
vn 1.000000 0.000000 0.000000
vn 1.000000 0.000000 0.000000
vn 1.000000 0.000000 0.000000
vn 0.000000 -1.000000 0.000000
vn 0.000000 -1.000000 0.000000
vn 0.000000 -1.000000 0.000000
vn 0.000000 -1.000000 0.000000
vn 0.000000 0.000000 1.000000
vn 0.000000 0.000000 1.000000
vn 0.000000 0.000000 1.000000
vn 0.000000 0.000000 1.000000
vn -1.000000 0.000000 0.000000
vn -1.000000 0.000000 0.000000
vn -1.000000 0.000000 0.000000
vn -1.000000 0.000000 0.000000
vn 0.000000 0.000000 -1.000000
vn 0.000000 0.000000 -1.000000
vn 0.000000 0.000000 -1.000000
vn 0.000000 0.000000 -1.000000
vn 1.000000 0.000000 0.000000
vn 1.000000 0.000000 0.000000
vn 1.000000 0.000000 0.000000
vn 1.000000 0.000000 0.000000
vn 0.000000 0.000000 1.000000
vn 0.000000 0.000000 1.000000
vn 0.000000 0.000000 1.000000
vn 0.000000 0.000000 1.000000
vn -1.000000 0.000000 0.000000
vn -1.000000 0.000000 0.000000
vn -1.000000 0.000000 0.000000
vn -1.000000 0.000000 0.000000
vn 0.000000 0.000000 -1.000000
vn 0.000000 0.000000 -1.000000
vn 0.000000 0.000000 -1.000000
vn 0.000000 0.000000 -1.000000
vn 1.000000 0.000000 0.000000
vn 1.000000 0.000000 0.000000
vn 1.000000 0.000000 0.000000
vn 1.000000 0.000000 0.000000
s off
g pCylinder2
usemtl initialShadingGroup
f 1/65/1 10/66/2 9/67/3 8/68/4 7/69/5 6/70/6 5/71/7 4/72/8 3/73/9 2/74/10
f 1/15/11 2/19/12 12/20/13 11/16/14
f 2/136/15 3/137/16 13/138/17 12/139/18
f 3/7/19 4/1/20 14/4/21 13/8/22
f 4/1/23 5/2/24 15/3/25 14/4/26
f 5/2/27 6/5/28 16/6/29 15/3/30
f 6/5/31 7/9/32 17/10/33 16/6/34
f 7/140/35 8/141/36 18/142/37 17/143/38
f 8/17/39 9/11/40 19/14/41 18/18/42
f 9/11/43 10/12/44 20/13/45 19/14/46
f 10/12/47 1/15/48 11/16/49 20/13/50
s 1
f 22/75/51 21/76/52 51/77/53
f 22/75/51 31/78/54 32/79/55 21/76/52
s off
f 31/38/56 33/37/57 34/39/58 32/40/59
s 1
f 21/76/52 32/79/55 35/83/60 23/80/61
s off
f 32/144/62 34/145/63 36/146/64 35/147/65
s 1
f 23/80/61 35/83/60 37/87/66 24/84/67
s off
f 35/25/68 36/26/69 38/22/70 37/21/71
s 1
f 24/84/67 37/87/66 39/91/72 25/88/73
s off
f 37/21/74 38/22/75 40/23/76 39/24/77
s 1
f 25/88/73 39/91/72 41/95/78 26/92/79
s off
f 39/24/80 40/23/81 42/27/82 41/28/83
s 1
f 26/92/79 41/95/78 43/94/84 27/93/85
s off
f 41/28/86 42/27/87 44/29/88 43/30/89
s 1
f 27/93/85 43/94/84 45/90/90 28/89/91
s off
f 43/148/92 44/149/93 46/150/94 45/151/95
s 1
f 28/89/91 45/90/90 47/86/96 29/85/97
s off
f 45/35/98 46/36/99 48/32/100 47/31/101
s 1
f 29/85/97 47/86/96 49/82/102 30/81/103
s off
f 47/31/104 48/32/105 50/33/106 49/34/107
f 33/37/108 31/38/109 49/34/110 50/33/111
s 1
f 31/78/54 22/75/51 30/81/103 49/82/102
s off
f 11/96/112 12/97/113 34/98/114 33/99/115
f 12/97/116 13/100/117 36/101/118 34/98/119
f 13/100/120 14/104/121 38/105/122 36/101/123
f 14/104/124 15/108/125 40/109/126 38/105/127
f 15/108/128 16/112/129 42/113/130 40/109/131
f 16/112/132 17/114/133 44/115/134 42/113/135
f 17/114/136 18/110/137 46/111/138 44/115/139
f 18/110/140 19/106/141 48/107/142 46/111/143
f 19/106/144 20/102/145 50/103/146 48/107/147
f 20/102/148 11/96/149 33/99/150 50/103/151
s 1
f 28/89/91 51/77/53 27/93/85
f 51/77/53 23/80/61 24/84/67
f 26/92/79 51/77/53 25/88/73
f 30/81/103 51/77/53 29/85/97
f 51/77/53 21/76/52 23/80/61
f 51/77/53 24/84/67 25/88/73
f 29/85/97 51/77/53 28/89/91
f 27/93/85 51/77/53 26/92/79
f 22/75/51 51/77/53 30/81/103
s off
f 52/152/152 53/153/153 55/154/154 54/155/155
f 68/116/156 69/117/157 70/118/158 71/119/159
f 56/158/160 57/159/161 59/160/162 58/161/163
s 2
f 58/120/164 59/121/165 66/122/166 67/123/167
s 3
f 65/41/168 66/42/169 59/43/170 57/44/171
s 4
f 58/53/172 67/54/173 64/55/174 56/56/175
s off
f 72/128/176 73/129/177 74/130/178 75/131/179
s 3
f 53/49/180 62/46/181 61/45/182 55/50/183
s 2
f 63/125/184 62/124/185 53/126/186 52/127/187
s 4
f 60/58/188 63/57/189 52/61/190 54/62/191
s off
f 60/132/192 61/133/193 65/134/194 64/135/195
s 3
f 61/45/182 62/46/181 66/42/169 65/41/168
s 2
f 67/123/167 66/122/166 62/124/185 63/125/184
s 4
f 64/55/174 67/54/173 63/57/189 60/58/188
s off
f 64/164/196 65/165/197 69/166/198 68/167/199
f 65/41/200 57/44/201 70/47/202 69/48/203
f 57/159/204 56/158/205 71/162/206 70/163/207
f 56/56/208 64/55/209 68/59/210 71/60/211
f 54/155/212 55/154/213 73/156/214 72/157/215
f 55/50/216 61/45/217 74/51/218 73/52/219
f 61/168/220 60/169/221 75/170/222 74/171/223
f 60/58/224 54/62/225 72/63/226 75/64/227
