# File produced by Open Asset Import Library (http://www.assimp.sf.net)
# (assimp v3.1.202510665)

mtllib carreteraSUB.mtl

# vertex positions
v -5.798337 0.000000 13.732568
v 5.432425 0.000000 13.732568
v 5.432425 0.069810 13.732568
v 0.479473 0.069810 13.732568
v -0.845390 0.069810 13.732568
v -5.798337 0.069810 13.732568
v -0.845390 0.069810 -12.664975
v -5.798337 0.069810 -12.664975
v -0.845390 0.069810 9.332969
v 0.479473 0.069810 9.332969
v 5.432425 0.069810 -12.664975
v 0.479473 0.069810 -12.664975
v 0.479473 0.069810 -8.265384
v 0.479473 0.069810 -3.865793
v -0.845390 0.069810 -3.865793
v -0.845390 0.069810 -8.265384
v 0.479473 0.069810 0.533791
v 0.479473 0.069810 4.933379
v -0.845390 0.069810 4.933379
v -0.845390 0.069810 0.533791
v 5.432425 0.000000 -12.664975
v -5.798337 0.000000 -12.664975
v -9.394615 0.070230 0.499472
v -5.772313 0.070230 0.499472
v -5.772313 0.103928 0.499472
v -9.394615 0.103928 0.499472
v -5.772313 0.204777 -2.780973
v -9.394615 0.204777 -2.780973
v -5.772313 0.070230 -2.780973
v -9.394615 0.070230 -2.780973
v -5.772313 0.070230 -2.874633
v -9.394615 0.070230 -2.874633
v -9.394615 0.207822 -2.874633
v -5.772313 0.207822 -2.874633
v -5.931684 0.118429 -5.986745
v -9.394615 0.118429 -6.080102
v -5.931684 0.070230 -5.986745
v -9.394615 0.070230 -6.080102
v -5.772313 0.070230 -6.163043
v -9.394615 0.070230 -6.163043
v -9.394615 0.070230 -6.159005
v -5.772313 0.070230 -6.159005
v -5.772313 0.223766 -6.159005
v -9.394615 0.153416 -6.159005
v -5.772313 0.223766 -9.439449
v -9.394615 0.153416 -9.439449
v -5.772313 0.070230 -9.439449
v -9.394615 0.070230 -9.439449
v -5.772313 0.070230 -9.533110
v -9.394615 0.070230 -9.533110
v -9.394615 0.170612 -9.533110
v -5.772313 0.170612 -9.533110
v -5.772313 0.208541 -12.738578
v -9.394615 0.208541 -12.738578
v -5.772313 0.070230 -12.738578
v -9.394615 0.070230 -12.738578
v -5.772313 0.070230 -12.821520
v -9.394615 0.070230 -12.821520
v -9.394615 0.070230 13.811419
v -5.772313 0.070230 13.811419
v -5.772313 0.224792 13.811419
v -9.394615 0.224792 13.811419
v -5.772313 0.128827 10.530972
v -9.394615 0.224792 10.530972
v -5.772313 0.070230 10.530972
v -9.394615 0.070230 10.530972
v -5.772313 0.070230 10.437313
v -9.394615 0.070230 10.437313
v -9.394615 0.155114 10.437313
v -5.772313 0.155114 10.437313
v -5.772313 0.155114 7.231844
v -9.394615 0.155114 7.231844
v -5.772313 0.070230 7.231844
v -9.394615 0.070230 7.231844
v -5.772313 0.070230 7.148903
v -9.394615 0.070230 7.148903
v -9.394615 0.070230 7.152943
v -5.772313 0.070230 7.152943
v -5.772313 0.143153 7.152943
v -9.394615 0.187353 7.152943
v -5.772313 0.187353 3.872498
v -9.394615 0.310879 3.872498
v -5.772313 0.070230 3.872498
v -9.394615 0.070230 3.872498
v -5.772313 0.070230 3.778837
v -9.394615 0.070230 3.778837
v -9.394615 0.099423 3.778837
v -5.772313 0.099423 3.778837
v -5.772313 0.099423 0.573369
v -9.394615 0.099423 0.573369
v -5.772313 0.070230 0.573369
v -9.394615 0.070230 0.573369
v -5.772313 0.070230 0.490427
v -9.394615 0.070230 0.490427
v -9.394035 0.000000 13.813114
v -5.772252 0.000000 13.813114
v -5.772252 0.075736 13.813114
v -9.394035 0.075736 13.813114
v -5.772252 0.075736 -12.821943
v -9.394035 0.075736 -12.821943
v -5.772252 0.000000 -12.821943
v -9.394035 0.000000 -12.821943
v 5.305751 0.070230 0.499472
v 8.928054 0.070230 0.499472
v 8.928054 0.220886 0.499472
v 5.305751 0.220886 0.499472
v 8.928054 0.220886 -2.780973
v 5.305751 0.220886 -2.780973
v 8.928054 0.070230 -2.780973
v 5.305751 0.070230 -2.780973
v 8.928054 0.070230 -2.874633
v 5.305751 0.070230 -2.874633
v 5.305751 0.231324 -2.874633
v 8.928054 0.231324 -2.874633
v 8.928054 0.131210 -6.080102
v 5.305751 0.131210 -6.080102
v 8.928054 0.070230 -6.080102
v 5.305751 0.070230 -6.080102
v 8.928054 0.070230 -6.163043
v 5.305751 0.070230 -6.163043
v 5.305751 0.070230 -6.159005
v 8.928054 0.070230 -6.159005
v 8.928054 0.121782 -6.159005
v 5.305751 0.107069 -6.159005
v 8.928054 0.167043 -9.439449
v 5.305751 0.167043 -9.439449
v 8.928054 0.070230 -9.439449
v 5.305751 0.070230 -9.439449
v 8.928054 0.070230 -9.533110
v 5.305751 0.070230 -9.533110
v 5.305751 0.118429 -9.533110
v 8.928054 0.118429 -9.533110
v 8.928054 0.118429 -12.738578
v 5.305751 0.118429 -12.253764
v 8.928054 0.070230 -12.738578
v 5.305751 0.070230 -12.253764
v 8.928054 0.070230 -12.821520
v 5.305751 0.070230 -12.821520
v 5.305751 0.070230 13.811419
v 8.928054 0.070230 13.811419
v 8.928054 0.123304 13.811419
v 5.305751 0.203808 13.811419
v 8.928054 0.288307 10.530972
v 5.305751 0.123304 10.530972
v 8.928054 0.070230 10.530972
v 5.305751 0.070230 10.530972
v 8.928054 0.070230 10.437313
v 5.305751 0.070230 10.437313
v 5.305751 0.216173 10.437313
v 8.928054 0.216173 10.437313
v 8.928054 0.216173 7.231844
v 5.305751 0.133506 7.231844
v 8.928054 0.070230 7.231844
v 5.305751 0.070230 7.231844
v 8.928054 0.070230 7.148903
v 5.305751 0.070230 7.148903
v 5.305751 0.070230 7.152943
v 8.928054 0.070230 7.152943
v 8.928054 0.127202 7.152943
v 5.305751 0.121782 7.152943
v 8.928054 0.231765 3.872498
v 5.305751 0.121782 3.872498
v 8.928054 0.070230 3.872498
v 5.305751 0.070230 3.872498
v 8.928054 0.070230 3.778837
v 5.305751 0.070230 3.778837
v 5.305751 0.094463 3.778837
v 8.928054 0.094463 3.778837
v 8.928054 0.094463 0.573369
v 5.305751 0.094463 0.573369
v 8.928054 0.070230 0.573369
v 5.305751 0.070230 0.573369
v 8.928054 0.070230 0.490427
v 5.305751 0.070230 0.490427
v 5.306331 0.000000 13.813114
v 8.928115 0.000000 13.813114
v 8.928115 0.075736 13.813114
v 5.306331 0.075736 13.813114
v 8.928115 0.075736 -12.821943
v 5.306331 0.075736 -12.821943
v 8.928115 0.000000 -12.821943
v 5.306331 0.000000 -12.821943

# UV coordinates
vt 0.915828 0.844423
vt 0.915828 0.594081
vt 0.917384 0.594081
vt 0.917384 0.704486
vt 0.917384 0.734018
vt 0.917384 0.844423
vt 0.499380 0.590412
vt 0.388975 0.590412
vt 0.388975 0.001992
vt 0.499380 0.001992
vt 0.499380 0.100062
vt 0.528912 0.100062
vt 0.528912 0.001992
vt 0.639317 0.001992
vt 0.639317 0.590412
vt 0.528912 0.590412
vt 0.528912 0.492342
vt 0.528912 0.394272
vt 0.499380 0.394272
vt 0.499380 0.492342
vt 0.528912 0.296202
vt 0.528912 0.198132
vt 0.499380 0.198132
vt 0.499380 0.296202
vt 0.908632 0.844423
vt 0.908632 0.734018
vt 0.908632 0.704486
vt 0.908632 0.594081
vt 0.910188 0.594081
vt 0.910188 0.844423
vt 0.645161 0.001992
vt 0.895503 0.001992
vt 0.895503 0.590412
vt 0.645161 0.590412
vt 0.901346 0.590412
vt 0.901346 0.001992
vt 0.902902 0.001992
vt 0.902902 0.590412
vt 0.910304 0.590412
vt 0.910304 0.001992
vt 0.911860 0.001992
vt 0.911860 0.590412
vt 0.902241 0.674825
vt 0.902241 0.594081
vt 0.902992 0.594081
vt 0.902992 0.674825
vt 0.823478 0.674825
vt 0.823478 0.594081
vt 0.896601 0.594081
vt 0.896601 0.674825
vt 0.814839 0.674825
vt 0.814839 0.594081
vt 0.817838 0.594081
vt 0.817838 0.674825
vt 0.797439 0.751618
vt 0.797439 0.678494
vt 0.800438 0.678494
vt 0.798190 0.751618
vt 0.806396 0.751617
vt 0.806396 0.678494
vt 0.807148 0.678494
vt 0.809395 0.751617
vt 0.807112 0.674825
vt 0.807112 0.594081
vt 0.809199 0.594081
vt 0.809199 0.674825
vt 0.730020 0.674825
vt 0.730020 0.594081
vt 0.799391 0.597634
vt 0.801472 0.674825
vt 0.721313 0.674825
vt 0.721313 0.594081
vt 0.724380 0.594081
vt 0.724380 0.674825
vt 0.770052 0.832267
vt 0.770052 0.762895
vt 0.771127 0.762895
vt 0.773119 0.832267
vt 0.791347 0.678494
vt 0.791347 0.755685
vt 0.790273 0.755685
vt 0.790273 0.678494
vt 0.879170 0.826739
vt 0.879170 0.755286
vt 0.882237 0.755286
vt 0.880244 0.826739
vt 0.713825 0.674825
vt 0.711744 0.597634
vt 0.715673 0.594081
vt 0.715673 0.674825
vt 0.702681 0.674825
vt 0.702681 0.594081
vt 0.706104 0.594081
vt 0.704536 0.674825
vt 0.623918 0.674825
vt 0.623918 0.594081
vt 0.697042 0.594081
vt 0.697042 0.674825
vt 0.616424 0.674825
vt 0.614856 0.594081
vt 0.618279 0.594081
vt 0.618279 0.674825
vt 0.815354 0.751617
vt 0.815354 0.678494
vt 0.818776 0.678494
vt 0.818776 0.751617
vt 0.826103 0.751617
vt 0.826103 0.678494
vt 0.827957 0.678494
vt 0.827957 0.751617
vt 0.607129 0.674825
vt 0.607129 0.594081
vt 0.609216 0.594081
vt 0.609216 0.674825
vt 0.530037 0.674825
vt 0.530037 0.594081
vt 0.601489 0.594081
vt 0.601489 0.674825
vt 0.522160 0.674825
vt 0.522160 0.594081
vt 0.524397 0.594081
vt 0.524397 0.674825
vt 0.870447 0.826739
vt 0.870447 0.755286
vt 0.873530 0.755286
vt 0.872684 0.826739
vt 0.516520 0.594081
vt 0.516520 0.674825
vt 0.513437 0.674825
vt 0.513437 0.594081
vt 0.861724 0.826739
vt 0.861724 0.755286
vt 0.863962 0.755286
vt 0.864807 0.826739
vt 0.505948 0.674825
vt 0.505948 0.594081
vt 0.507797 0.594081
vt 0.507797 0.674825
vt 0.496863 0.674825
vt 0.496863 0.594081
vt 0.500309 0.594081
vt 0.500309 0.674825
vt 0.418100 0.674825
vt 0.418100 0.594081
vt 0.491224 0.594081
vt 0.491224 0.674825
vt 0.409015 0.674825
vt 0.411154 0.594081
vt 0.412460 0.594081
vt 0.412460 0.674825
vt 0.835060 0.751617
vt 0.835060 0.678494
vt 0.836367 0.678494
vt 0.838506 0.751617
vt 0.845809 0.751617
vt 0.845809 0.678494
vt 0.849255 0.678494
vt 0.849255 0.751617
vt 0.401288 0.674825
vt 0.401288 0.594081
vt 0.403375 0.594081
vt 0.403375 0.674825
vt 0.324196 0.680119
vt 0.324196 0.599376
vt 0.395648 0.599376
vt 0.395648 0.680119
vt 0.316664 0.680119
vt 0.316664 0.599376
vt 0.318556 0.599376
vt 0.318556 0.680119
vt 0.854192 0.826739
vt 0.854192 0.755286
vt 0.856084 0.755286
vt 0.856084 0.826739
vt 0.311024 0.599376
vt 0.311024 0.680119
vt 0.309132 0.680119
vt 0.309132 0.599376
vt 0.846660 0.826739
vt 0.846660 0.755286
vt 0.848553 0.755286
vt 0.848553 0.826739
vt 0.301644 0.680119
vt 0.301644 0.599376
vt 0.303492 0.599376
vt 0.303492 0.680119
vt 0.293393 0.680119
vt 0.293393 0.599376
vt 0.295019 0.599376
vt 0.296004 0.680119
vt 0.214630 0.680119
vt 0.214630 0.599376
vt 0.287754 0.599376
vt 0.287754 0.680119
vt 0.203626 0.680119
vt 0.206380 0.599376
vt 0.208990 0.599376
vt 0.208990 0.680119
vt 0.856559 0.751617
vt 0.856559 0.678494
vt 0.859169 0.678494
vt 0.858184 0.751617
vt 0.865516 0.751617
vt 0.865516 0.678494
vt 0.868127 0.678494
vt 0.870880 0.751617
vt 0.195899 0.680119
vt 0.195899 0.599376
vt 0.197986 0.599376
vt 0.197986 0.680119
vt 0.118807 0.680119
vt 0.118807 0.599376
vt 0.190259 0.599376
vt 0.190259 0.680119
vt 0.112516 0.680119
vt 0.112516 0.599376
vt 0.113167 0.599376
vt 0.113167 0.680119
vt 0.840370 0.826739
vt 0.840370 0.755286
vt 0.841021 0.755286
vt 0.841021 0.826739
vt 0.106877 0.599376
vt 0.106877 0.680119
vt 0.106226 0.680119
vt 0.106226 0.599376
vt 0.834080 0.826739
vt 0.834080 0.755286
vt 0.834730 0.755286
vt 0.834730 0.826739
vt 0.098737 0.680119
vt 0.098737 0.599376
vt 0.100586 0.599376
vt 0.100586 0.680119
vt 0.754443 0.759226
vt 0.754443 0.678494
vt 0.756131 0.678494
vt 0.756131 0.759226
vt 0.001831 0.001992
vt 0.082563 0.001992
vt 0.082563 0.595707
vt 0.001831 0.595707
vt 0.763400 0.759226
vt 0.763400 0.678494
vt 0.765088 0.678494
vt 0.765088 0.759226
vt 0.089794 0.001992
vt 0.170526 0.001992
vt 0.170526 0.595707
vt 0.089794 0.595707
vt 0.177578 0.595707
vt 0.177578 0.001992
vt 0.179266 0.001992
vt 0.179266 0.595707
vt 0.186535 0.595707
vt 0.186535 0.001992
vt 0.188224 0.001992
vt 0.188224 0.595707
vt 0.089740 0.680119
vt 0.089740 0.599376
vt 0.093098 0.599376
vt 0.093098 0.680119
vt 0.010976 0.680119
vt 0.010976 0.599376
vt 0.084100 0.599376
vt 0.084100 0.680119
vt 0.001978 0.680119
vt 0.001978 0.599376
vt 0.005337 0.599376
vt 0.005337 0.680119
vt 0.878057 0.751617
vt 0.878057 0.678494
vt 0.881415 0.678494
vt 0.881415 0.751617
vt 0.888806 0.751617
vt 0.888806 0.678494
vt 0.892164 0.678494
vt 0.892164 0.751617
vt 0.001831 0.764532
vt 0.001831 0.683788
vt 0.003919 0.683788
vt 0.003919 0.764532
vt 0.010968 0.764532
vt 0.010968 0.683788
vt 0.082420 0.683788
vt 0.082420 0.764532
vt 0.089794 0.764532
vt 0.089794 0.683788
vt 0.093385 0.683788
vt 0.093385 0.764532
vt 0.824849 0.826739
vt 0.824849 0.755286
vt 0.826208 0.755286
vt 0.828440 0.826739
vt 0.101902 0.683788
vt 0.101902 0.764532
vt 0.100543 0.764532
vt 0.100543 0.683788
vt 0.815619 0.826739
vt 0.815619 0.755286
vt 0.819209 0.755286
vt 0.816978 0.826739
vt 0.107709 0.764532
vt 0.107709 0.683788
vt 0.109558 0.683788
vt 0.109558 0.764532
vt 0.116667 0.764532
vt 0.116667 0.683788
vt 0.117816 0.683788
vt 0.117488 0.764532
vt 0.123833 0.764532
vt 0.123833 0.683788
vt 0.196956 0.683788
vt 0.196956 0.764532
vt 0.202659 0.764532
vt 0.202659 0.683788
vt 0.204817 0.683788
vt 0.204817 0.764532
vt 0.899555 0.751617
vt 0.899555 0.678494
vt 0.901713 0.678494
vt 0.900704 0.751617
vt 0.908512 0.921216
vt 0.908512 0.848092
vt 0.909333 0.848092
vt 0.910670 0.921216
vt 0.211616 0.764532
vt 0.211616 0.683788
vt 0.213704 0.683788
vt 0.213704 0.764532
vt 0.220574 0.764532
vt 0.220574 0.683788
vt 0.292026 0.683788
vt 0.281219 0.764532
vt 0.299400 0.764532
vt 0.299400 0.683788
vt 0.300475 0.683788
vt 0.300475 0.764532
vt 0.808904 0.826739
vt 0.808904 0.755287
vt 0.809979 0.755287
vt 0.809979 0.826739
vt 0.307641 0.683788
vt 0.307641 0.764532
vt 0.306566 0.764532
vt 0.306566 0.683788
vt 0.763338 0.823541
vt 0.763338 0.762895
vt 0.764413 0.762895
vt 0.764413 0.823541
vt 0.313732 0.764532
vt 0.324539 0.683788
vt 0.326388 0.683788
vt 0.326388 0.764532
vt 0.333439 0.764532
vt 0.333439 0.683788
vt 0.334622 0.683788
vt 0.336416 0.764532
vt 0.342396 0.764532
vt 0.342396 0.683788
vt 0.415520 0.683788
vt 0.415520 0.764532
vt 0.424901 0.759238
vt 0.421223 0.678494
vt 0.426084 0.678494
vt 0.426084 0.759238
vt 0.912523 0.998008
vt 0.912523 0.924885
vt 0.917384 0.924885
vt 0.913706 0.998008
vt 0.903905 0.998008
vt 0.903905 0.924885
vt 0.906883 0.924885
vt 0.905088 0.998008
vt 0.431972 0.759238
vt 0.431972 0.678494
vt 0.434059 0.678494
vt 0.434059 0.759238
vt 0.440929 0.759238
vt 0.440929 0.678494
vt 0.512381 0.678494
vt 0.512381 0.759238
vt 0.519755 0.759238
vt 0.519755 0.678494
vt 0.523009 0.678494
vt 0.523009 0.759238
vt 0.800012 0.826739
vt 0.800012 0.755287
vt 0.803265 0.755287
vt 0.803265 0.826739
vt 0.531966 0.678494
vt 0.531966 0.759238
vt 0.530556 0.759238
vt 0.528713 0.678494
vt 0.791119 0.830807
vt 0.791119 0.759354
vt 0.794372 0.759354
vt 0.792529 0.830807
vt 0.537670 0.759238
vt 0.537670 0.678494
vt 0.539519 0.678494
vt 0.539519 0.759238
vt 0.546628 0.759238
vt 0.546628 0.678494
vt 0.547898 0.678494
vt 0.547777 0.759238
vt 0.553794 0.759238
vt 0.553794 0.678494
vt 0.626918 0.678494
vt 0.626918 0.759238
vt 0.635072 0.759238
vt 0.632620 0.678494
vt 0.636221 0.678494
vt 0.636221 0.759238
vt 0.894665 0.828410
vt 0.894665 0.755286
vt 0.898266 0.755286
vt 0.895935 0.828410
vt 0.887876 0.828410
vt 0.887876 0.755286
vt 0.889025 0.755286
vt 0.889025 0.828410
vt 0.643369 0.759238
vt 0.643369 0.678494
vt 0.645457 0.678494
vt 0.645457 0.759238
vt 0.652327 0.759238
vt 0.652327 0.678494
vt 0.723779 0.678494
vt 0.723779 0.759238
vt 0.731153 0.759238
vt 0.731153 0.678494
vt 0.731693 0.678494
vt 0.731693 0.759238
vt 0.784939 0.834348
vt 0.784939 0.762895
vt 0.785479 0.762895
vt 0.785479 0.834348
vt 0.738859 0.678494
vt 0.738859 0.759238
vt 0.738319 0.759238
vt 0.738319 0.678494
vt 0.778759 0.834348
vt 0.778759 0.762895
vt 0.779299 0.762895
vt 0.779299 0.834348
vt 0.745485 0.759238
vt 0.745485 0.678494
vt 0.747334 0.678494
vt 0.747334 0.759238
vt 0.772358 0.759226
vt 0.772358 0.678494
vt 0.774046 0.678494
vt 0.774046 0.759226
vt 0.195493 0.001992
vt 0.276225 0.001992
vt 0.276225 0.595707
vt 0.195493 0.595707
vt 0.781315 0.759226
vt 0.781315 0.678494
vt 0.783003 0.678494
vt 0.783003 0.759226
vt 0.283277 0.001992
vt 0.364009 0.001992
vt 0.364009 0.595707
vt 0.283277 0.595707
vt 0.371060 0.595707
vt 0.371060 0.001992
vt 0.372749 0.001992
vt 0.372749 0.595707
vt 0.380018 0.595707
vt 0.380018 0.001992
vt 0.381706 0.001992
vt 0.381706 0.595707

# vertex normals
vn 0.000000 0.000000 1.000000
vn 0.000000 1.000000 0.000000
vn 0.000000 0.000000 -1.000000
vn 0.000000 -1.000000 0.000000
vn 1.000000 0.000000 0.000000
vn -1.000000 0.000000 0.000000
vn 0.000000 0.999528 0.030728
vn 0.000373 0.999600 -0.028298
vn 0.000373 0.999599 -0.028298
vn 0.998691 0.000000 -0.051143
vn 0.026949 0.000000 -0.999637
vn -0.019418 0.999811 0.000000
vn 0.000000 0.999930 0.011832
vn 0.013244 0.999805 -0.014624
vn 0.023138 0.999406 0.025549
vn 0.000000 0.999513 -0.031217
vn -0.002031 0.999869 0.016038
vn -0.132658 0.000000 -0.991162
vn -0.011662 0.999849 0.012877
vn -0.011409 0.999852 -0.012893
vn -0.015925 0.999746 0.015933

# Mesh
g pCube14
usemtl initialShadingGroup
f 6/6/1 1/1/1 2/2/1
f 6/6/1 2/2/1 3/3/1
f 3/3/1 4/4/1 5/5/1
f 3/3/1 5/5/1 6/6/1
f 7/7/2 8/8/2 6/9/2
f 7/7/2 6/9/2 5/10/2
f 7/7/2 5/10/2 9/11/2
f 7/7/2 9/11/2 10/12/2
f 7/7/2 10/12/2 4/13/2
f 7/7/2 4/13/2 3/14/2
f 7/7/2 3/14/2 11/15/2
f 7/7/2 11/15/2 12/16/2
f 7/7/2 12/16/2 13/17/2
f 7/7/2 13/17/2 14/18/2
f 7/7/2 14/18/2 15/19/2
f 7/7/2 15/19/2 16/20/2
f 7/7/2 16/20/2 17/21/2
f 7/7/2 17/21/2 18/22/2
f 7/7/2 18/22/2 19/23/2
f 7/7/2 19/23/2 20/24/2
f 22/30/3 8/25/3 7/26/3
f 22/30/3 7/26/3 12/27/3
f 22/30/3 12/27/3 11/28/3
f 11/28/3 21/29/3 22/30/3
f 1/34/4 22/31/4 21/32/4
f 21/32/4 2/33/4 1/34/4
f 3/38/5 2/35/5 21/36/5
f 21/36/5 11/37/5 3/38/5
f 8/42/6 22/39/6 1/40/6
f 1/40/6 6/41/6 8/42/6
f 4/13/2 10/12/2 9/11/2
f 9/11/2 5/10/2 4/13/2
f 18/22/2 17/21/2 20/24/2
f 20/24/2 19/23/2 18/22/2
f 14/18/2 13/17/2 16/20/2
f 16/20/2 15/19/2 14/18/2
f 26/46/1 23/43/1 24/44/1
f 24/44/1 25/45/1 26/46/1
f 28/50/7 26/47/7 25/48/7
f 25/48/7 27/49/7 28/50/7
f 30/54/3 28/51/3 27/52/3
f 27/52/3 29/53/3 30/54/3
f 25/58/5 24/55/5 29/56/5
f 29/56/5 27/57/5 25/58/5
f 28/62/6 30/59/6 23/60/6
f 23/60/6 26/61/6 28/62/6
f 32/66/2 30/63/2 29/64/2
f 29/64/2 31/65/2 32/66/2
f 36/70/8 33/67/8 34/68/8
f 34/68/8 35/69/9 36/70/8
f 33/74/1 32/71/1 31/72/1
f 31/72/1 34/73/1 33/74/1
f 34/78/10 31/75/10 37/76/10
f 37/76/10 35/77/10 34/78/10
f 35/82/11 37/79/11 38/80/11
f 38/80/11 36/81/11 35/82/11
f 36/86/6 38/83/6 32/84/6
f 32/84/6 33/85/6 36/86/6
f 40/90/2 38/87/2 37/88/2
f 37/88/2 39/89/2 40/90/2
f 44/94/1 41/91/1 42/92/1
f 42/92/1 43/93/1 44/94/1
f 46/98/12 44/95/12 43/96/12
f 43/96/12 45/97/12 46/98/12
f 48/102/3 46/99/3 45/100/3
f 45/100/3 47/101/3 48/102/3
f 43/106/5 42/103/5 47/104/5
f 47/104/5 45/105/5 43/106/5
f 46/110/6 48/107/6 41/108/6
f 41/108/6 44/109/6 46/110/6
f 50/114/2 48/111/2 47/112/2
f 47/112/2 49/113/2 50/114/2
f 54/118/13 51/115/13 52/116/13
f 52/116/13 53/117/13 54/118/13
f 51/122/1 50/119/1 49/120/1
f 49/120/1 52/121/1 51/122/1
f 52/126/5 49/123/5 55/124/5
f 55/124/5 53/125/5 52/126/5
f 53/130/3 55/127/3 56/128/3
f 56/128/3 54/129/3 53/130/3
f 54/134/6 56/131/6 50/132/6
f 50/132/6 51/133/6 54/134/6
f 58/138/2 56/135/2 55/136/2
f 55/136/2 57/137/2 58/138/2
f 62/142/1 59/139/1 60/140/1
f 60/140/1 61/141/1 62/142/1
f 64/146/14 62/143/14 61/144/14
f 61/144/14 63/145/14 64/146/14
f 66/150/3 64/147/3 63/148/3
f 63/148/3 65/149/3 66/150/3
f 61/154/5 60/151/5 65/152/5
f 65/152/5 63/153/5 61/154/5
f 64/158/6 66/155/6 59/156/6
f 59/156/6 62/157/6 64/158/6
f 68/162/2 66/159/2 65/160/2
f 65/160/2 67/161/2 68/162/2
f 72/166/2 69/163/2 70/164/2
f 70/164/2 71/165/2 72/166/2
f 69/170/1 68/167/1 67/168/1
f 67/168/1 70/169/1 69/170/1
f 70/174/5 67/171/5 73/172/5
f 73/172/5 71/173/5 70/174/5
f 71/178/3 73/175/3 74/176/3
f 74/176/3 72/177/3 71/178/3
f 72/182/6 74/179/6 68/180/6
f 68/180/6 69/181/6 72/182/6
f 76/186/2 74/183/2 73/184/2
f 73/184/2 75/185/2 76/186/2
f 80/190/1 77/187/1 78/188/1
f 78/188/1 79/189/1 80/190/1
f 82/194/15 80/191/15 79/192/15
f 79/192/15 81/193/15 82/194/15
f 84/198/3 82/195/3 81/196/3
f 81/196/3 83/197/3 84/198/3
f 79/202/5 78/199/5 83/200/5
f 83/200/5 81/201/5 79/202/5
f 82/206/6 84/203/6 77/204/6
f 77/204/6 80/205/6 82/206/6
f 86/210/2 84/207/2 83/208/2
f 83/208/2 85/209/2 86/210/2
f 90/214/2 87/211/2 88/212/2
f 88/212/2 89/213/2 90/214/2
f 87/218/1 86/215/1 85/216/1
f 85/216/1 88/217/1 87/218/1
f 88/222/5 85/219/5 91/220/5
f 91/220/5 89/221/5 88/222/5
f 89/226/3 91/223/3 92/224/3
f 92/224/3 90/225/3 89/226/3
f 90/230/6 92/227/6 86/228/6
f 86/228/6 87/229/6 90/230/6
f 94/234/2 92/231/2 91/232/2
f 91/232/2 93/233/2 94/234/2
f 98/238/1 95/235/1 96/236/1
f 96/236/1 97/237/1 98/238/1
f 100/242/2 98/239/2 97/240/2
f 97/240/2 99/241/2 100/242/2
f 102/246/3 100/243/3 99/244/3
f 99/244/3 101/245/3 102/246/3
f 95/250/4 102/247/4 101/248/4
f 101/248/4 96/249/4 95/250/4
f 97/254/5 96/251/5 101/252/5
f 101/252/5 99/253/5 97/254/5
f 100/258/6 102/255/6 95/256/6
f 95/256/6 98/257/6 100/258/6
f 106/262/1 103/259/1 104/260/1
f 104/260/1 105/261/1 106/262/1
f 108/266/2 106/263/2 105/264/2
f 105/264/2 107/265/2 108/266/2
f 110/270/3 108/267/3 107/268/3
f 107/268/3 109/269/3 110/270/3
f 105/274/5 104/271/5 109/272/5
f 109/272/5 107/273/5 105/274/5
f 108/278/6 110/275/6 103/276/6
f 103/276/6 106/277/6 108/278/6
f 112/282/2 110/279/2 109/280/2
f 109/280/2 111/281/2 112/282/2
f 116/286/16 113/283/16 114/284/16
f 114/284/16 115/285/16 116/286/16
f 113/290/1 112/287/1 111/288/1
f 111/288/1 114/289/1 113/290/1
f 114/294/5 111/291/5 117/292/5
f 117/292/5 115/293/5 114/294/5
f 115/298/3 117/295/3 118/296/3
f 118/296/3 116/297/3 115/298/3
f 116/302/6 118/299/6 112/300/6
f 112/300/6 113/301/6 116/302/6
f 120/306/2 118/303/2 117/304/2
f 117/304/2 119/305/2 120/306/2
f 124/310/1 121/307/1 122/308/1
f 122/308/1 123/309/1 124/310/1
f 126/314/17 124/311/17 123/312/17
f 123/312/17 125/313/17 126/314/17
f 128/318/3 126/315/3 125/316/3
f 125/316/3 127/317/3 128/318/3
f 123/322/5 122/319/5 127/320/5
f 127/320/5 125/321/5 123/322/5
f 126/326/6 128/323/6 121/324/6
f 121/324/6 124/325/6 126/326/6
f 130/330/2 128/327/2 127/328/2
f 127/328/2 129/329/2 130/330/2
f 134/334/2 131/331/2 132/332/2
f 132/332/2 133/333/2 134/334/2
f 131/338/1 130/335/1 129/336/1
f 129/336/1 132/337/1 131/338/1
f 132/342/5 129/339/5 135/340/5
f 135/340/5 133/341/5 132/342/5
f 133/346/18 135/343/18 136/344/18
f 136/344/18 134/345/18 133/346/18
f 134/350/6 136/347/6 130/348/6
f 130/348/6 131/349/6 134/350/6
f 138/354/2 136/351/2 135/352/2
f 135/352/2 137/353/2 138/354/2
f 142/358/1 139/355/1 140/356/1
f 140/356/1 141/357/1 142/358/1
f 144/362/19 142/359/19 141/360/19
f 141/360/19 143/361/19 144/362/19
f 146/366/3 144/363/3 143/364/3
f 143/364/3 145/365/3 146/366/3
f 141/370/5 140/367/5 145/368/5
f 145/368/5 143/369/5 141/370/5
f 144/374/6 146/371/6 139/372/6
f 139/372/6 142/373/6 144/374/6
f 148/378/2 146/375/2 145/376/2
f 145/376/2 147/377/2 148/378/2
f 152/382/20 149/379/20 150/380/20
f 150/380/20 151/381/20 152/382/20
f 149/386/1 148/383/1 147/384/1
f 147/384/1 150/385/1 149/386/1
f 150/390/5 147/387/5 153/388/5
f 153/388/5 151/389/5 150/390/5
f 151/394/3 153/391/3 154/392/3
f 154/392/3 152/393/3 151/394/3
f 152/398/6 154/395/6 148/396/6
f 148/396/6 149/397/6 152/398/6
f 156/402/2 154/399/2 153/400/2
f 153/400/2 155/401/2 156/402/2
f 160/406/1 157/403/1 158/404/1
f 158/404/1 159/405/1 160/406/1
f 162/410/21 160/407/21 159/408/21
f 159/408/21 161/409/21 162/410/21
f 164/414/3 162/411/3 161/412/3
f 161/412/3 163/413/3 164/414/3
f 159/418/5 158/415/5 163/416/5
f 163/416/5 161/417/5 159/418/5
f 162/422/6 164/419/6 157/420/6
f 157/420/6 160/421/6 162/422/6
f 166/426/2 164/423/2 163/424/2
f 163/424/2 165/425/2 166/426/2
f 170/430/2 167/427/2 168/428/2
f 168/428/2 169/429/2 170/430/2
f 167/434/1 166/431/1 165/432/1
f 165/432/1 168/433/1 167/434/1
f 168/438/5 165/435/5 171/436/5
f 171/436/5 169/437/5 168/438/5
f 169/442/3 171/439/3 172/440/3
f 172/440/3 170/441/3 169/442/3
f 170/446/6 172/443/6 166/444/6
f 166/444/6 167/445/6 170/446/6
f 174/450/2 172/447/2 171/448/2
f 171/448/2 173/449/2 174/450/2
f 178/454/1 175/451/1 176/452/1
f 176/452/1 177/453/1 178/454/1
f 180/458/2 178/455/2 177/456/2
f 177/456/2 179/457/2 180/458/2
f 182/462/3 180/459/3 179/460/3
f 179/460/3 181/461/3 182/462/3
f 175/466/4 182/463/4 181/464/4
f 181/464/4 176/465/4 175/466/4
f 177/470/5 176/467/5 181/468/5
f 181/468/5 179/469/5 177/470/5
f 180/474/6 182/471/6 175/472/6
f 175/472/6 178/473/6 180/474/6
