# File produced by Open Asset Import Library (http://www.assimp.sf.net)
# (assimp v3.1.202510665)

mtllib techo.mtl

# vertex positions
v 17.106552 20.679924 -27.628141
v -17.106552 20.679924 -27.628141
v -17.106552 24.651649 -27.628141
v 17.106552 24.651649 -27.628141
v 17.106552 20.679924 27.628141
v -17.106552 20.679924 27.628141
v -17.106552 24.651649 27.628141
v 14.043833 21.435520 22.972954
v 14.043833 21.435520 -22.972954
v -14.043833 21.435520 -22.972954
v -14.043833 21.435520 22.972954
v -16.100132 24.651649 26.336657
v 17.106552 24.651649 27.628141
v 16.100132 24.651649 26.336657
v 16.100132 24.651649 -26.336657
v -16.100132 24.651649 -26.336657
v 2.410585 14.527885 -1.265172
v 1.546512 14.527885 -2.240509
v 1.546512 21.043503 -2.240509
v 2.410585 21.043503 -1.265172
v 0.328153 14.527885 -2.702572
v 0.328153 21.043503 -2.702572
v -0.965383 14.527885 -2.545509
v -0.965383 21.043503 -2.545509
v -2.037761 14.527885 -1.805300
v -2.037761 21.043503 -1.805300
v -2.643312 14.527885 -0.651519
v -2.643313 21.043503 -0.651519
v -2.643313 14.527885 0.651518
v -2.643313 21.043503 0.651518
v -2.037762 14.527885 1.805299
v -2.037762 21.043503 1.805299
v -0.965384 14.527885 2.545508
v -0.965384 21.043503 2.545508
v 0.328151 14.527885 2.702572
v 0.328151 21.043503 2.702572
v 1.546512 14.527885 2.240509
v 1.546512 21.043503 2.240509
v 2.410585 14.527885 1.265172
v 2.410585 21.043503 1.265172
v 2.722422 14.527885 0.000000
v 2.722422 21.043503 0.000000
v 1.546512 -0.148273 -2.240509
v 2.410585 -0.148273 -1.265172
v 0.000000 -0.148273 0.000000
v 0.328153 -0.148273 -2.702572
v -0.965383 -0.148273 -2.545509
v -2.037761 -0.148273 -1.805300
v -2.643313 -0.148273 -0.651519
v -2.643313 -0.148273 0.651518
v -2.037762 -0.148273 1.805299
v -0.965384 -0.148273 2.545508
v 0.328151 -0.148273 2.702572
v 1.546512 -0.148273 2.240509
v 2.410585 -0.148273 1.265172
v 2.722422 -0.148273 0.000000
v 0.000000 21.043503 0.000000
v 2.410585 4.082117 -1.265172
v 1.546512 4.082117 -2.240509
v 1.546512 9.180325 -2.240509
v 2.410585 9.180325 -1.265172
v 0.328153 4.082117 -2.702572
v 0.328153 9.180325 -2.702572
v -0.965383 4.082117 -2.545509
v -0.965383 9.180325 -2.545509
v -2.037761 4.082117 -1.805300
v -2.037761 9.180325 -1.805300
v -2.643312 4.082117 -0.651519
v -2.643312 9.180325 -0.651519
v -2.643313 4.082117 0.651518
v -2.643313 9.180325 0.651518
v -2.037762 4.082117 1.805299
v -2.037762 9.180325 1.805299
v -0.965384 4.082117 2.545508
v -0.965384 9.180325 2.545508
v 0.328151 4.082117 2.702572
v 0.328151 9.180325 2.702572
v 1.546512 4.082117 2.240509
v 1.546512 9.180325 2.240509
v 2.410585 4.082117 1.265172
v 2.410585 9.180325 1.265172
v 2.722422 4.082117 0.000000
v 2.722422 9.180325 0.000000

# UV coordinates
vt 0.981357 0.138654
vt 0.981357 0.518133
vt 0.937304 0.518133
vt 0.937304 0.138654
vt 0.001824 0.001992
vt 0.381303 0.001992
vt 0.381303 0.614874
vt 0.001824 0.614874
vt 0.387543 0.614874
vt 0.387543 0.001992
vt 0.431596 0.001992
vt 0.431596 0.614874
vt 0.783029 0.053626
vt 0.783029 0.563240
vt 0.471491 0.563240
vt 0.471491 0.053626
vt 0.448684 0.016317
vt 0.437521 0.001992
vt 0.816999 0.001992
vt 0.805837 0.016317
vt 0.816999 0.614874
vt 0.805837 0.600549
vt 0.448684 0.600549
vt 0.437521 0.614874
vt 0.887632 0.138654
vt 0.931685 0.138654
vt 0.931685 0.518133
vt 0.887632 0.518133
vt 0.823061 0.001992
vt 0.867114 0.001992
vt 0.867114 0.614874
vt 0.823061 0.614874
vt 0.803844 0.781312
vt 0.814663 0.781312
vt 0.814663 0.853580
vt 0.803844 0.853580
vt 0.759342 0.690798
vt 0.745828 0.690798
vt 0.745828 0.618529
vt 0.759342 0.618529
vt 0.731481 0.690798
vt 0.731481 0.618529
vt 0.669394 0.781312
vt 0.677604 0.781312
vt 0.677604 0.853580
vt 0.669394 0.853580
vt 0.690402 0.781312
vt 0.690402 0.853580
vt 0.704854 0.781312
vt 0.704854 0.853580
vt 0.717652 0.781312
vt 0.717652 0.853580
vt 0.725862 0.781312
vt 0.725862 0.853580
vt 0.635914 0.781312
vt 0.650262 0.781312
vt 0.650262 0.853580
vt 0.635914 0.853580
vt 0.663775 0.781312
vt 0.663775 0.853580
vt 0.764961 0.781312
vt 0.775779 0.781312
vt 0.775779 0.853580
vt 0.764961 0.853580
vt 0.789812 0.781312
vt 0.789812 0.853580
vt 0.617253 0.623654
vt 0.626837 0.634472
vt 0.600100 0.648505
vt 0.603739 0.618529
vt 0.589392 0.620271
vt 0.577497 0.628481
vt 0.570781 0.641279
vt 0.570781 0.655731
vt 0.577497 0.668529
vt 0.589392 0.676739
vt 0.603739 0.678481
vt 0.617253 0.673356
vt 0.626837 0.662538
vt 0.630296 0.648505
vt 0.561703 0.662538
vt 0.552119 0.673356
vt 0.534966 0.648505
vt 0.538606 0.678481
vt 0.524258 0.676739
vt 0.512364 0.668529
vt 0.505647 0.655731
vt 0.505647 0.641279
vt 0.512364 0.628481
vt 0.524258 0.620271
vt 0.538606 0.618529
vt 0.552119 0.623654
vt 0.561703 0.634472
vt 0.565162 0.648505
vt 0.803844 0.665451
vt 0.814663 0.665451
vt 0.814663 0.721998
vt 0.803844 0.721998
vt 0.759342 0.806658
vt 0.745828 0.806658
vt 0.745828 0.750111
vt 0.759342 0.750111
vt 0.731481 0.806658
vt 0.731481 0.750111
vt 0.669394 0.665451
vt 0.677604 0.665451
vt 0.677604 0.721998
vt 0.669394 0.721998
vt 0.690402 0.665451
vt 0.690402 0.721998
vt 0.704854 0.665451
vt 0.704854 0.721998
vt 0.717652 0.665451
vt 0.717652 0.721998
vt 0.725862 0.665451
vt 0.725862 0.721998
vt 0.635914 0.665451
vt 0.650262 0.665451
vt 0.650262 0.721998
vt 0.635914 0.721998
vt 0.663775 0.665451
vt 0.663775 0.721998
vt 0.764961 0.665451
vt 0.775779 0.665451
vt 0.775779 0.721998
vt 0.764961 0.721998
vt 0.789812 0.665451
vt 0.789812 0.721998
vt 0.803844 0.618529
vt 0.814663 0.618529
vt 0.759342 0.853580
vt 0.745828 0.853580
vt 0.731481 0.853580
vt 0.669394 0.618529
vt 0.677604 0.618529
vt 0.690402 0.618529
vt 0.704854 0.618529
vt 0.717652 0.618529
vt 0.725862 0.618529
vt 0.635914 0.618529
vt 0.650262 0.618529
vt 0.663775 0.618529
vt 0.764961 0.618529
vt 0.775779 0.618529
vt 0.789812 0.618529

# vertex normals
vn 0.000000 0.000000 -1.000000
vn 0.000000 -1.000000 0.000000
vn -1.000000 0.000000 0.000000
vn 0.000000 1.000000 0.000000
vn 0.000000 1.000000 0.000000
vn 0.000000 0.000000 1.000000
vn 0.000000 0.722784 -0.691074
vn 0.000000 0.722784 -0.691074
vn 1.000000 0.000000 0.000000
vn -0.842512 0.538678 0.000000
vn -0.842512 0.538678 0.000000
vn 0.842512 0.538678 0.000000
vn 0.842512 0.538678 0.000000
vn 0.000000 0.722784 0.691074
vn 0.000000 0.722784 0.691074
vn 0.885456 -0.000000 -0.464723
vn 0.568065 -0.000000 -0.822984
vn 0.568065 -0.000000 -0.822984
vn 0.885456 -0.000000 -0.464723
vn 0.120537 -0.000000 -0.992709
vn 0.120537 -0.000000 -0.992709
vn -0.354605 -0.000000 -0.935016
vn -0.354605 -0.000000 -0.935016
vn -0.748511 -0.000000 -0.663123
vn -0.748511 -0.000000 -0.663123
vn -0.970942 -0.000000 -0.239316
vn -0.970942 -0.000000 -0.239316
vn -0.970942 -0.000000 0.239315
vn -0.970942 -0.000000 0.239315
vn -0.748511 -0.000000 0.663123
vn -0.748511 0.000000 0.663123
vn -0.354605 -0.000000 0.935016
vn -0.354605 -0.000000 0.935016
vn 0.120537 -0.000000 0.992709
vn 0.120537 -0.000000 0.992709
vn 0.568065 -0.000000 0.822984
vn 0.568065 -0.000000 0.822984
vn 0.885456 -0.000000 0.464723
vn 0.885456 -0.000000 0.464723
vn 1.000000 0.000000 0.000000
vn 1.000000 0.000000 0.000000
vn 0.000000 -1.000000 0.000000
vn 0.000000 -1.000000 0.000000
vn 0.000000 -1.000000 -0.000000
vn 0.000000 -1.000000 0.000000
vn 0.000000 -1.000000 -0.000000
vn 0.000000 -1.000000 -0.000000
vn 0.000000 -1.000000 0.000000
vn 0.000000 -1.000000 -0.000000
vn 0.000000 1.000000 0.000000
vn 0.000000 1.000000 0.000001
vn 0.000000 1.000000 0.000001
vn 0.000000 1.000000 -0.000001
vn 0.000000 1.000000 -0.000000
vn 0.000000 1.000000 0.000000
vn 0.885456 0.000000 -0.464723
vn 0.568065 0.000000 -0.822984
vn 0.568065 0.000000 -0.822984
vn 0.885456 0.000000 -0.464723
vn 0.120537 0.000000 -0.992709
vn 0.120537 0.000000 -0.992709
vn -0.354605 0.000000 -0.935016
vn -0.354605 0.000000 -0.935016
vn -0.748511 0.000000 -0.663123
vn -0.748511 0.000000 -0.663123
vn -0.970942 0.000000 -0.239316
vn -0.970942 0.000000 -0.239316
vn -0.970942 0.000000 0.239315
vn -0.970942 0.000000 0.239315
vn -0.748511 0.000000 0.663122
vn -0.748511 0.000000 0.663123
vn -0.354605 0.000000 0.935016
vn -0.354605 0.000000 0.935016
vn 0.120537 0.000000 0.992709
vn 0.120537 0.000000 0.992709
vn 0.568065 0.000000 0.822984
vn 0.568065 0.000000 0.822984
vn 0.885456 0.000000 0.464723
vn 0.885456 0.000000 0.464723
vn 1.000000 0.000000 0.000000
vn 1.000000 0.000000 0.000000
vn 0.885456 0.000000 -0.464723
vn 0.568065 0.000000 -0.822984
vn 0.120537 0.000000 -0.992709
vn -0.354605 0.000000 -0.935016
vn -0.748511 0.000000 -0.663123
vn -0.970942 0.000000 -0.239316
vn -0.970942 0.000000 0.239315
vn -0.748511 0.000000 0.663123
vn -0.354605 0.000000 0.935016
vn 0.120537 0.000000 0.992709
vn 0.568065 0.000000 0.822984
vn 0.885456 0.000000 0.464723
vn 1.000000 0.000000 0.000000

# Mesh
g pCube2
usemtl lambert1
f 4/4/1 1/1/1 2/2/1
f 2/2/1 3/3/1 4/4/1
f 6/8/2 2/5/2 1/6/2
f 1/6/2 5/7/2 6/8/2
f 3/12/3 2/9/3 6/10/3
f 6/10/3 7/11/3 3/12/3
f 11/16/4 8/13/4 9/14/4
f 9/14/4 10/15/4 11/16/4
f 14/20/5 12/17/5 7/18/5
f 7/18/5 13/19/5 14/20/5
f 15/22/5 14/20/5 13/19/5
f 13/19/5 4/21/5 15/22/5
f 3/24/5 7/18/5 12/17/5
f 12/17/5 16/23/5 3/24/5
f 4/21/5 3/24/5 16/23/5
f 16/23/5 15/22/5 4/21/5
f 6/28/6 5/25/6 13/26/6
f 13/26/6 7/27/6 6/28/6
f 14/20/8 8/13/7 11/16/7
f 11/16/7 12/17/8 14/20/8
f 5/32/9 1/29/9 4/30/9
f 4/30/9 13/31/9 5/32/9
f 15/22/11 9/14/10 8/13/10
f 8/13/10 14/20/11 15/22/11
f 12/17/13 11/16/12 10/15/12
f 10/15/12 16/23/13 12/17/13
f 16/23/15 10/15/14 9/14/14
f 9/14/14 15/22/15 16/23/15
f 20/36/19 17/33/16 18/34/17
f 18/34/17 19/35/18 20/36/19
f 19/40/18 18/37/17 21/38/20
f 21/38/20 22/39/21 19/40/18
f 22/39/21 21/38/20 23/41/22
f 23/41/22 24/42/23 22/39/21
f 24/46/23 23/43/22 25/44/24
f 25/44/24 26/45/25 24/46/23
f 26/45/25 25/44/24 27/47/26
f 27/47/26 28/48/27 26/45/25
f 28/48/27 27/47/26 29/49/28
f 29/49/28 30/50/29 28/48/27
f 30/50/29 29/49/28 31/51/30
f 31/51/30 32/52/31 30/50/29
f 32/52/31 31/51/30 33/53/32
f 33/53/32 34/54/33 32/52/31
f 34/58/33 33/55/32 35/56/34
f 35/56/34 36/57/35 34/58/33
f 36/57/35 35/56/34 37/59/36
f 37/59/36 38/60/37 36/57/35
f 38/64/37 37/61/36 39/62/38
f 39/62/38 40/63/39 38/64/37
f 40/63/39 39/62/38 41/65/40
f 41/65/40 42/66/41 40/63/39
f 42/66/41 41/65/40 17/33/16
f 17/33/16 20/36/19 42/66/41
f 43/67/42 44/68/43 45/69/44
f 46/70/45 43/67/42 45/69/44
f 47/71/2 46/70/45 45/69/44
f 48/72/2 47/71/2 45/69/44
f 49/73/2 48/72/2 45/69/44
f 50/74/2 49/73/2 45/69/44
f 51/75/46 50/74/2 45/69/44
f 52/76/47 51/75/46 45/69/44
f 53/77/47 52/76/47 45/69/44
f 54/78/48 53/77/47 45/69/44
f 55/79/2 54/78/48 45/69/44
f 56/80/49 55/79/2 45/69/44
f 44/68/43 56/80/49 45/69/44
f 20/81/5 19/82/5 57/83/50
f 19/82/5 22/84/5 57/83/50
f 22/84/5 24/85/51 57/83/50
f 24/85/51 26/86/52 57/83/50
f 26/86/52 28/87/5 57/83/50
f 28/87/5 30/88/5 57/83/50
f 30/88/5 32/89/5 57/83/50
f 32/89/5 34/90/53 57/83/50
f 34/90/53 36/91/54 57/83/50
f 36/91/54 38/92/55 57/83/50
f 38/92/55 40/93/5 57/83/50
f 40/93/5 42/94/5 57/83/50
f 42/94/5 20/81/5 57/83/50
f 61/98/59 58/95/56 59/96/57
f 59/96/57 60/97/58 61/98/59
f 60/102/58 59/99/57 62/100/60
f 62/100/60 63/101/61 60/102/58
f 63/101/61 62/100/60 64/103/62
f 64/103/62 65/104/63 63/101/61
f 65/108/63 64/105/62 66/106/64
f 66/106/64 67/107/65 65/108/63
f 67/107/65 66/106/64 68/109/66
f 68/109/66 69/110/67 67/107/65
f 69/110/67 68/109/66 70/111/68
f 70/111/68 71/112/69 69/110/67
f 71/112/69 70/111/68 72/113/70
f 72/113/70 73/114/71 71/112/69
f 73/114/71 72/113/70 74/115/72
f 74/115/72 75/116/73 73/114/71
f 75/120/73 74/117/72 76/118/74
f 76/118/74 77/119/75 75/120/73
f 77/119/75 76/118/74 78/121/76
f 78/121/76 79/122/77 77/119/75
f 79/126/77 78/123/76 80/124/78
f 80/124/78 81/125/79 79/126/77
f 81/125/79 80/124/78 82/127/80
f 82/127/80 83/128/81 81/125/79
f 83/128/81 82/127/80 58/95/56
f 58/95/56 61/98/59 83/128/81
f 17/33/16 61/98/59 60/97/58
f 60/97/58 18/34/17 17/33/16
f 18/37/17 60/102/58 63/101/61
f 63/101/61 21/38/20 18/37/17
f 21/38/20 63/101/61 65/104/63
f 65/104/63 23/41/22 21/38/20
f 23/43/22 65/108/63 67/107/65
f 67/107/65 25/44/24 23/43/22
f 25/44/24 67/107/65 69/110/67
f 69/110/67 27/47/26 25/44/24
f 27/47/26 69/110/67 71/112/69
f 71/112/69 29/49/28 27/47/26
f 29/49/28 71/112/69 73/114/71
f 73/114/71 31/51/30 29/49/28
f 31/51/30 73/114/71 75/116/73
f 75/116/73 33/53/32 31/51/30
f 33/55/32 75/120/73 77/119/75
f 77/119/75 35/56/34 33/55/32
f 35/56/34 77/119/75 79/122/77
f 79/122/77 37/59/36 35/56/34
f 37/61/36 79/126/77 81/125/79
f 81/125/79 39/62/38 37/61/36
f 39/62/38 81/125/79 83/128/81
f 83/128/81 41/65/40 39/62/38
f 41/65/40 83/128/81 61/98/59
f 61/98/59 17/33/16 41/65/40
f 58/95/56 44/129/82 43/130/83
f 43/130/83 59/96/57 58/95/56
f 59/99/57 43/131/83 46/132/84
f 46/132/84 62/100/60 59/99/57
f 62/100/60 46/132/84 47/133/85
f 47/133/85 64/103/62 62/100/60
f 64/105/62 47/134/85 48/135/86
f 48/135/86 66/106/64 64/105/62
f 66/106/64 48/135/86 49/136/87
f 49/136/87 68/109/66 66/106/64
f 68/109/66 49/136/87 50/137/88
f 50/137/88 70/111/68 68/109/66
f 70/111/68 50/137/88 51/138/89
f 51/138/89 72/113/70 70/111/68
f 72/113/70 51/138/89 52/139/90
f 52/139/90 74/115/72 72/113/70
f 74/117/72 52/140/90 53/141/91
f 53/141/91 76/118/74 74/117/72
f 76/118/74 53/141/91 54/142/92
f 54/142/92 78/121/76 76/118/74
f 78/123/76 54/143/92 55/144/93
f 55/144/93 80/124/78 78/123/76
f 80/124/78 55/144/93 56/145/94
f 56/145/94 82/127/80 80/124/78
f 82/127/80 56/145/94 44/129/82
f 44/129/82 58/95/56 82/127/80
