# This file uses centimeters as units for non-parametric coordinates.

mtllib Hojas.mtl
g default
v -2.448436 -0.015160 1.660352
v 2.448436 -0.015160 1.660352
v -2.448436 0.015160 1.660352
v 2.448436 0.015160 1.660352
v -2.448436 0.015160 -1.660352
v 2.448436 0.015160 -1.660352
v -2.448436 -0.015160 -1.660352
v 2.448436 -0.015160 -1.660352
v -4.740132 0.012790 4.747592
v -0.244780 0.012790 2.805645
v -4.740132 0.043111 4.747592
v -0.244780 0.043111 2.805645
v -6.057020 0.043111 1.699171
v -1.561668 0.043111 -0.242777
v -6.057020 0.012790 1.699171
v -1.561668 0.012790 -0.242777
v 1.200880 -0.015160 1.825826
v 5.117731 -0.015160 -1.113159
v 1.200880 0.015160 1.825826
v 5.117731 0.015160 -1.113159
v -0.792126 0.015160 -0.830298
v 3.124725 0.015160 -3.769283
v -0.792126 -0.015160 -0.830298
v 3.124725 -0.015160 -3.769283
v -1.735373 0.000476 1.342284
v 2.278993 0.000476 4.146605
v -1.735373 0.030797 1.342284
v 2.278993 0.030797 4.146605
v 0.166314 0.030797 -1.379967
v 4.180680 0.030797 1.424353
v 0.166314 0.000476 -1.379967
v 4.180680 0.000476 1.424353
v -5.960428 -0.018332 0.968151
v -1.145040 -0.018332 0.078550
v -5.960428 0.011989 0.968151
v -1.145040 0.011989 0.078550
v -6.563691 0.011989 -2.297296
v -1.748303 0.011989 -3.186897
v -6.563691 -0.018332 -2.297296
v -1.748303 -0.018332 -3.186897
v -4.261313 -0.045799 -1.362536
v 0.136693 -0.045799 0.790808
v -4.261313 -0.015478 -1.362536
v 0.136693 -0.015478 0.790808
v -2.801071 -0.015478 -4.344945
v 1.596935 -0.015478 -2.191601
v -2.801071 -0.045799 -4.344945
v 1.596935 -0.045799 -2.191601
vt 0.551920 0.927862
vt 0.551920 0.780076
vt 0.553269 0.780076
vt 0.553269 0.927862
vt 0.544985 0.927862
vt 0.544985 0.780076
vt 0.546334 0.780076
vt 0.546334 0.927862
vt 0.524181 0.915744
vt 0.524181 0.780076
vt 0.525530 0.780076
vt 0.525530 0.915744
vt 0.517246 0.915744
vt 0.517246 0.780076
vt 0.518595 0.780076
vt 0.518595 0.915744
vt 0.538050 0.925402
vt 0.538050 0.780076
vt 0.539399 0.780076
vt 0.539399 0.925402
vt 0.531115 0.925402
vt 0.531115 0.780076
vt 0.532465 0.780076
vt 0.532465 0.925402
vt 0.510311 0.912806
vt 0.510311 0.780076
vt 0.511660 0.780076
vt 0.511660 0.912806
vt 0.503376 0.912806
vt 0.503376 0.780076
vt 0.504726 0.780076
vt 0.504726 0.912806
vt 0.760769 0.998008
vt 0.760769 0.780076
vt 0.908555 0.780076
vt 0.908555 0.998008
vt 0.600463 0.998008
vt 0.600463 0.780076
vt 0.748249 0.780076
vt 0.748249 0.998008
vt 0.001813 0.733330
vt 0.088239 0.533267
vt 0.223907 0.591875
vt 0.137482 0.791938
vt 0.317296 0.791938
vt 0.230871 0.591875
vt 0.366539 0.533267
vt 0.452964 0.733330
vt 0.505882 0.176309
vt 0.636680 0.001992
vt 0.754889 0.090690
vt 0.624091 0.265007
vt 0.790346 0.531655
vt 0.659548 0.357338
vt 0.777757 0.268640
vt 0.908555 0.442957
vt 0.126618 0.265282
vt 0.001813 0.086625
vt 0.122966 0.001992
vt 0.247770 0.180649
vt 0.253936 0.180649
vt 0.378741 0.001992
vt 0.499893 0.086625
vt 0.375089 0.265282
vt 0.473945 0.749594
vt 0.513536 0.535288
vt 0.658863 0.562136
vt 0.619272 0.776442
vt 0.705157 0.776442
vt 0.665566 0.562136
vt 0.810893 0.535288
vt 0.850484 0.749594
vt 0.521232 0.529634
vt 0.425399 0.333903
vt 0.558129 0.268916
vt 0.653963 0.464647
vt 0.191250 0.464647
vt 0.287084 0.268916
vt 0.419814 0.333903
vt 0.323981 0.529634
vt 0.857186 0.753221
vt 0.857186 0.535288
vt 0.858536 0.535288
vt 0.858536 0.753221
vt 0.753834 0.998008
vt 0.753834 0.780076
vt 0.755184 0.780076
vt 0.755184 0.998008
vt 0.579659 0.980139
vt 0.579659 0.780076
vt 0.581008 0.780076
vt 0.581008 0.980139
vt 0.572724 0.980139
vt 0.572724 0.780076
vt 0.574073 0.780076
vt 0.574073 0.980139
vt 0.593528 0.994381
vt 0.593528 0.780076
vt 0.594878 0.780076
vt 0.594878 0.994381
vt 0.586593 0.994381
vt 0.586593 0.780076
vt 0.587943 0.780076
vt 0.587943 0.994381
vt 0.565789 0.975806
vt 0.565789 0.780076
vt 0.567139 0.780076
vt 0.567139 0.975806
vt 0.558854 0.975806
vt 0.558854 0.780076
vt 0.560204 0.780076
vt 0.560204 0.975806
vt 0.459751 0.782274
vt 0.459751 0.651477
vt 0.461101 0.651477
vt 0.461101 0.782274
vt 0.459751 0.533267
vt 0.461101 0.533267
vt 0.459751 0.664065
vt 0.461101 0.664065
vt 0.497791 0.780076
vt 0.497791 0.910873
vt 0.496441 0.910873
vt 0.496441 0.780076
vt 0.466848 0.658072
vt 0.466848 0.533267
vt 0.468198 0.533267
vt 0.468198 0.658072
vt 0.466848 0.654419
vt 0.468198 0.654419
vt 0.466848 0.779224
vt 0.468198 0.779224
vt 0.490856 0.780076
vt 0.490856 0.904880
vt 0.489507 0.904880
vt 0.489507 0.780076
vn 0.000000 0.000000 1.000000
vn 0.000000 0.000000 1.000000
vn 0.000000 0.000000 1.000000
vn 0.000000 0.000000 1.000000
vn 0.000000 1.000000 0.000000
vn 0.000000 1.000000 0.000000
vn 0.000000 1.000000 0.000000
vn 0.000000 1.000000 0.000000
vn 0.000000 0.000000 -1.000000
vn 0.000000 0.000000 -1.000000
vn 0.000000 0.000000 -1.000000
vn 0.000000 0.000000 -1.000000
vn 0.000000 -1.000000 0.000000
vn 0.000000 -1.000000 0.000000
vn 0.000000 -1.000000 0.000000
vn 0.000000 -1.000000 0.000000
vn 1.000000 0.000000 0.000000
vn 1.000000 0.000000 0.000000
vn 1.000000 0.000000 0.000000
vn 1.000000 0.000000 0.000000
vn -1.000000 0.000000 0.000000
vn -1.000000 0.000000 0.000000
vn -1.000000 0.000000 0.000000
vn -1.000000 0.000000 0.000000
vn 0.396569 0.000000 0.918005
vn 0.396569 0.000000 0.918005
vn 0.396569 0.000000 0.918005
vn 0.396569 0.000000 0.918005
vn 0.000000 1.000000 0.000000
vn 0.000000 1.000000 0.000000
vn 0.000000 1.000000 0.000000
vn 0.000000 1.000000 0.000000
vn -0.396569 0.000000 -0.918005
vn -0.396569 0.000000 -0.918005
vn -0.396569 0.000000 -0.918005
vn -0.396569 0.000000 -0.918005
vn 0.000000 -1.000000 0.000000
vn 0.000000 -1.000000 0.000000
vn 0.000000 -1.000000 0.000000
vn 0.000000 -1.000000 0.000000
vn 0.918005 0.000000 -0.396569
vn 0.918005 0.000000 -0.396569
vn 0.918005 0.000000 -0.396569
vn 0.918005 0.000000 -0.396569
vn -0.918005 0.000000 0.396569
vn -0.918005 0.000000 0.396569
vn -0.918005 0.000000 0.396569
vn -0.918005 0.000000 0.396569
vn 0.600176 0.000000 0.799868
vn 0.600176 0.000000 0.799868
vn 0.600176 0.000000 0.799868
vn 0.600176 0.000000 0.799868
vn 0.000000 1.000000 0.000000
vn 0.000000 1.000000 0.000000
vn 0.000000 1.000000 0.000000
vn 0.000000 1.000000 0.000000
vn -0.600176 0.000000 -0.799868
vn -0.600176 0.000000 -0.799868
vn -0.600176 0.000000 -0.799868
vn -0.600176 0.000000 -0.799868
vn 0.000000 -1.000000 -0.000000
vn 0.000000 -1.000000 -0.000000
vn 0.000000 -1.000000 -0.000000
vn 0.000000 -1.000000 -0.000000
vn 0.799868 0.000000 -0.600176
vn 0.799868 0.000000 -0.600176
vn 0.799868 0.000000 -0.600176
vn 0.799868 0.000000 -0.600176
vn -0.799868 0.000000 0.600176
vn -0.799868 0.000000 0.600176
vn -0.799868 0.000000 0.600176
vn -0.799868 0.000000 0.600176
vn -0.572676 0.000000 0.819782
vn -0.572676 0.000000 0.819782
vn -0.572676 0.000000 0.819782
vn -0.572676 0.000000 0.819782
vn 0.000000 1.000000 -0.000000
vn 0.000000 1.000000 -0.000000
vn 0.000000 1.000000 -0.000000
vn 0.000000 1.000000 -0.000000
vn 0.572676 0.000000 -0.819782
vn 0.572676 0.000000 -0.819782
vn 0.572676 0.000000 -0.819782
vn 0.572676 0.000000 -0.819782
vn 0.000000 -1.000000 0.000000
vn 0.000000 -1.000000 0.000000
vn 0.000000 -1.000000 0.000000
vn 0.000000 -1.000000 0.000000
vn 0.819782 0.000000 0.572676
vn 0.819782 0.000000 0.572676
vn 0.819782 0.000000 0.572676
vn 0.819782 0.000000 0.572676
vn -0.819782 0.000000 -0.572676
vn -0.819782 0.000000 -0.572676
vn -0.819782 0.000000 -0.572676
vn -0.819782 0.000000 -0.572676
vn 0.181667 0.000000 0.983360
vn 0.181667 0.000000 0.983360
vn 0.181667 0.000000 0.983360
vn 0.181667 0.000000 0.983360
vn 0.000000 1.000000 0.000000
vn 0.000000 1.000000 0.000000
vn 0.000000 1.000000 0.000000
vn 0.000000 1.000000 0.000000
vn -0.181667 0.000000 -0.983360
vn -0.181667 0.000000 -0.983360
vn -0.181667 0.000000 -0.983360
vn -0.181667 0.000000 -0.983360
vn 0.000000 -1.000000 0.000000
vn 0.000000 -1.000000 0.000000
vn 0.000000 -1.000000 0.000000
vn 0.000000 -1.000000 0.000000
vn 0.983360 0.000000 -0.181667
vn 0.983360 0.000000 -0.181667
vn 0.983360 0.000000 -0.181667
vn 0.983360 0.000000 -0.181667
vn -0.983360 0.000000 0.181667
vn -0.983360 0.000000 0.181667
vn -0.983360 0.000000 0.181667
vn -0.983360 0.000000 0.181667
vn -0.439739 0.000000 0.898126
vn -0.439739 0.000000 0.898126
vn -0.439739 0.000000 0.898126
vn -0.439739 0.000000 0.898126
vn 0.000000 1.000000 -0.000000
vn 0.000000 1.000000 -0.000000
vn 0.000000 1.000000 -0.000000
vn 0.000000 1.000000 -0.000000
vn 0.439739 0.000000 -0.898126
vn 0.439739 0.000000 -0.898126
vn 0.439739 0.000000 -0.898126
vn 0.439739 0.000000 -0.898126
vn 0.000000 -1.000000 0.000000
vn 0.000000 -1.000000 0.000000
vn 0.000000 -1.000000 0.000000
vn 0.000000 -1.000000 0.000000
vn 0.898126 0.000000 0.439739
vn 0.898126 0.000000 0.439739
vn 0.898126 0.000000 0.439739
vn 0.898126 0.000000 0.439739
vn -0.898126 0.000000 -0.439739
vn -0.898126 0.000000 -0.439739
vn -0.898126 0.000000 -0.439739
vn -0.898126 0.000000 -0.439739
s off
g pCube7
usemtl initialShadingGroup
f 1/81/1 2/82/2 4/83/3 3/84/4
f 3/33/5 4/34/6 6/35/7 5/36/8
f 5/85/9 6/86/10 8/87/11 7/88/12
f 7/37/13 8/38/14 2/39/15 1/40/16
f 2/1/17 8/2/18 6/3/19 4/4/20
f 7/5/21 1/6/22 3/7/23 5/8/24
f 9/89/25 10/90/26 12/91/27 11/92/28
f 11/41/29 12/42/30 14/43/31 13/44/32
f 13/93/33 14/94/34 16/95/35 15/96/36
f 15/45/37 16/46/38 10/47/39 9/48/40
f 10/9/41 16/10/42 14/11/43 12/12/44
f 15/13/45 9/14/46 11/15/47 13/16/48
f 17/113/49 18/114/50 20/115/51 19/116/52
f 19/49/53 20/50/54 22/51/55 21/52/56
f 21/121/57 22/122/58 24/123/59 23/124/60
f 23/53/61 24/54/62 18/55/63 17/56/64
f 18/114/65 24/117/66 22/118/67 20/115/68
f 23/119/69 17/113/70 19/116/71 21/120/72
f 25/125/73 26/126/74 28/127/75 27/128/76
f 27/57/77 28/58/78 30/59/79 29/60/80
f 29/133/81 30/134/82 32/135/83 31/136/84
f 31/61/85 32/62/86 26/63/87 25/64/88
f 26/126/89 32/129/90 30/130/91 28/127/92
f 31/131/93 25/125/94 27/128/95 29/132/96
f 33/97/97 34/98/98 36/99/99 35/100/100
f 35/65/101 36/66/102 38/67/103 37/68/104
f 37/101/105 38/102/106 40/103/107 39/104/108
f 39/69/109 40/70/110 34/71/111 33/72/112
f 34/17/113 40/18/114 38/19/115 36/20/116
f 39/21/117 33/22/118 35/23/119 37/24/120
f 41/105/121 42/106/122 44/107/123 43/108/124
f 43/73/125 44/74/126 46/75/127 45/76/128
f 45/109/129 46/110/130 48/111/131 47/112/132
f 47/77/133 48/78/134 42/79/135 41/80/136
f 42/25/137 48/26/138 46/27/139 44/28/140
f 47/29/141 41/30/142 43/31/143 45/32/144
